<svg xmlns="http://www.w3.org/2000/svg" viewBox="0 0 844.72 558.36"><defs><style>.cls-1{fill:#3f3d56;}.cls-2{fill:#e6e8ec;}.cls-3{fill:#07689f;}.cls-4,.cls-5{fill:#fff;}.cls-4{opacity:0.3;isolation:isolate;}.cls-6{fill:#ffb8b8;}.cls-7{fill:#2f2e41;}.cls-8{fill:#f2f2f2;}</style></defs><title>mobile-home</title><g id="Layer_2" data-name="Layer 2"><g id="Layer_1-2" data-name="Layer 1"><path class="cls-1" d="M617.57,558.36q-35-5.49-67.37-9.33l8.3-16.6c-2.88-1-15.36,8.64-15.36,8.64l10.56-48C539.29,495,532.57,544,532.57,544l-16.33-16.32,8,18.48c-66-6.93-122.89-9.09-170.73-8.6l7.1-14.21c-2.88-1-15.37,8.65-15.37,8.65l10.57-48c-14.41,1.93-21.13,50.91-21.13,50.91L318.39,518.5l8.51,19.58a959,959,0,0,0-98,7.89c7.08-22.08,31.84-43.32,31.84-43.32-19,5.93-28.94,15.57-34.06,24.52a385.53,385.53,0,0,1,20.62-133.53s-38.42,86.44-32.66,144.07l.73,10.24c-33.42,5.21-50.19,10.41-50.19,10.41Z"/><path class="cls-1" d="M705.62,439.39a11.53,11.53,0,1,1,11.52-11.52A11.53,11.53,0,0,1,705.62,439.39Zm0-21.13a9.61,9.61,0,1,0,9.6,9.61A9.61,9.61,0,0,0,705.62,418.26Z"/><path class="cls-1" d="M797.66,556.85h-19v-19h19Zm-17.51-1.46H796.2v-16H780.15Z"/><path class="cls-1" d="M155.73,557.88,142.8,544l13.86-12.93L169.6,545Zm-10.87-13.79,10.94,11.73,11.74-10.94-10.95-11.73Z"/><rect class="cls-1" x="20.82" y="555.78" width="823.9" height="1.92"/><path class="cls-1" d="M531.59,128.47v63.08a2.21,2.21,0,0,1-2.2,2.2h-1.57V522.37a34.29,34.29,0,0,1-34.29,34.29H288.2a34.28,34.28,0,0,1-34.28-34.29h0V205.28h-1.13a1.55,1.55,0,0,1-1.56-1.55v-35.9a1.56,1.56,0,0,1,1.56-1.56h1.13V152.75h-1.14a1.63,1.63,0,0,1-1.63-1.63V115.71a1.64,1.64,0,0,1,1.63-1.63h1.14V95.62h-1.16a1.43,1.43,0,0,1-1.44-1.43h0V74.86a1.44,1.44,0,0,1,1.44-1.45h1.16V34.28A34.28,34.28,0,0,1,288.2,0H493.53a34.29,34.29,0,0,1,34.29,34.28v92h1.57A2.21,2.21,0,0,1,531.59,128.47Z"/><rect class="cls-2" x="364.95" y="17.58" width="38.25" height="7.77" rx="2.44" ry="2.44"/><circle class="cls-2" cx="413.39" cy="21.47" r="4.41"/><path class="cls-3" d="M511.4,41.06V525.21A21.75,21.75,0,0,1,489.65,547H293.09a21.77,21.77,0,0,1-10-2.45,19.64,19.64,0,0,1-2.12-1.25,21.77,21.77,0,0,1-9.59-18V41.06a21.75,21.75,0,0,1,21.75-21.75h29.42v3.77A17.91,17.91,0,0,0,340.42,41h100A17.91,17.91,0,0,0,458.3,23.08V19.31h31.35A21.74,21.74,0,0,1,511.4,41.05Z"/><path class="cls-4" d="M511.4,455.91v69.3A21.75,21.75,0,0,1,489.65,547H293.09a21.77,21.77,0,0,1-10-2.45,19.64,19.64,0,0,1-2.12-1.25,21.77,21.77,0,0,1-9.59-18V455.94A179.56,179.56,0,0,1,511.4,455.91Z"/><path class="cls-4" d="M499.71,544.49A21.51,21.51,0,0,1,489.65,547H293.09a21.77,21.77,0,0,1-10-2.45,117.33,117.33,0,0,1,216.66,0Z"/><path class="cls-4" d="M456.94,545.65a13.07,13.07,0,0,1-6.1,1.5H331.9a13.17,13.17,0,0,1-6.08-1.49,71,71,0,0,1,131.12,0Z"/><path class="cls-5" d="M441.37,206.74c-19.71,0-41.35-3.76-58.25-16.43-23.51-17.63-52.49-16.69-72.66-12.8a158.23,158.23,0,0,0-38.68,12.89l-.89-1.71a160.17,160.17,0,0,1,39.16-13.05c20.56-4,50.13-4.93,74.23,13.14,45.14,33.85,126,3.45,126.78,3.14l.69,1.79A233.17,233.17,0,0,1,465,205.1,180.89,180.89,0,0,1,441.37,206.74Z"/><path class="cls-4" d="M271.33,189.55s66.27-16.06,112.37,5.92,127.74-.16,127.74-.16"/><path class="cls-4" d="M333.89,214.48a126.38,126.38,0,0,1-23.84-2.38A160.62,160.62,0,0,1,270.89,199l.89-1.7a158.63,158.63,0,0,0,38.68,12.88c20.17,3.9,49.15,4.84,72.66-12.8,24.08-18,57.8-18,81.85-14.78A232.49,232.49,0,0,1,511.75,194l-.69,1.79c-.81-.31-81.64-30.72-126.78,3.14C368.48,210.81,350.32,214.48,333.89,214.48Z"/><path class="cls-4" d="M334.22,206.75c-33.27,0-62.81-11.94-63.25-12.12l.73-1.78c.66.27,66.36,26.8,111.51.06,45.94-27.19,127.65-2.92,128.47-2.67l-.56,1.84c-.81-.24-81.72-24.28-126.93,2.49C368.76,203.7,351,206.75,334.22,206.75Z"/><path class="cls-4" d="M271.34,192.26s66.26,22,112.36,0,127.7-2.07,127.7-2.07"/><path class="cls-6" d="M528.51,251.06v28s2.24,31.36,14.56,47c0,0,20.16,28.56,23,22.4l-3.45-20.28-11.67-11.08-6.16-34.72-1.68-31.36Z"/><polygon class="cls-6" points="652.27 504.18 652.27 524.9 635.47 531.06 635.47 506.98 652.27 504.18"/><polygon class="cls-6" points="618.11 501.94 629.31 527.14 613.63 533.86 610.27 509.22 618.11 501.94"/><path class="cls-7" d="M646.11,308.74s22.4,202.16,14,202.72-24.64,11.2-24.64,3.92-12.88-101.92-12.88-101.92l-12.32-48.72v67.2l12.88,76.16s-12.32,16.24-21.28,6.72l-19-74.48s-25.2-113.12-24.08-122.08C558.75,318.26,616.43,269,646.11,308.74Z"/><path class="cls-7" d="M641.63,526s4.48-9.52,14.56-3.36l8.4,10.08s21.65,17.94,6.29,21.78c-15.84,4-25.33-.26-25.33-.26a12.24,12.24,0,0,0-5-1.68c-2.24,0-7.28-3.91-7.28-5s1.68-21,1.68-21a3.54,3.54,0,0,1,3.92.56C640.51,528.82,641.63,526,641.63,526Z"/><path class="cls-7" d="M608.59,522.66s10.64-8.4,15.68,1.12c0,0,3.17,1.12,3.54,0s3.18-1.68,3.18,4.48,3,21.52.24,22.08-5.6,2.24-5,4.48-3,2.56-15.92,2-13.44-5.6-13.44-5.6,0-7.28,3.36-11.2S608.59,522.66,608.59,522.66Z"/><path class="cls-6" d="M587.87,155.86s-2.8,20.72,15.12,28-39.76,31.36-45.36,17.36,1.12-18.48,1.12-18.48,5.6-5.6.56-20.72Z"/><circle class="cls-6" cx="569.95" cy="145.78" r="24.64"/><path class="cls-8" d="M598.51,190.58s-16.8,9-33,2.24-15.68,22.4-15.68,22.4l8.4,21.84,58.24-5.6-3.92-33.6Z"/><path class="cls-3" d="M590.16,171.42a20.35,20.35,0,0,1,14,10.76l26.88,8.4,6.72,9.52L629.87,269s14.56,14,14.56,21.84,17.92,34.72,9,31.36-25.2-15.12-25.2-15.12-40.88,1.68-53.76,12.88-17.92,7.84-17.92,7.84-13.44-58.24-14-67.2-16.24-62.72-16.24-62.72l28-15.68,7.13-8.09,19.75,31.61,17.92-21.84S590.21,176.9,590.16,171.42Z"/><path class="cls-6" d="M646.11,243.22l3.36,17.92s15.12,56,12.88,75c0,0,1.68,42.56-7.84,37.52S650,337.86,650,337.86l-13.44-55.44-7.28-32.48Z"/><path class="cls-1" d="M632.11,196.74l5.6,3.36S659,244.34,654,247.7s-26.88,10.64-26.88,10.64Z"/><polygon class="cls-1" points="539.71 197.86 526.55 197.58 523.47 202.9 527.39 257.22 547.55 261.7 539.71 197.86"/><path class="cls-7" d="M590,124.94l4.44-1.61s-9.28-9.29-22.2-8.48l3.63-3.63s-8.88-3.23-17,5.25c-4.24,4.45-9.15,9.69-12.21,15.59H542l2,4L537,140l7.13-.71a20,20,0,0,0,.67,10.28l1.62,4.44s6.46-12.92,6.46-14.53v4s4.44-3.64,4.44-6.06l2.42,2.83,1.21-4.45,14.94,4.45-2.42-3.64,9.28,1.21-3.63-4.44s10.5,5.25,10.9,9.69,3.18,10.23,3.18,10.23l3.36-3.92S601.72,131,590,124.94Z"/><ellipse class="cls-6" cx="590.67" cy="146.06" rx="1.96" ry="5.04"/><path class="cls-1" d="M40,525.38C51.92,547.52,77.26,557,77.26,557s6-26.38-6-48.52S34,476.86,34,476.86,28.05,503.25,40,525.38Z"/><path class="cls-3" d="M48.19,518.1C69.74,531.07,78,556.82,78,556.82s-26.64,4.73-48.19-8.23S0,509.87,0,509.87,26.64,505.13,48.19,518.1Z"/><path class="cls-4" d="M271.34,189.55s66.26-34.58,112.36,0,127.7,3.26,127.7,3.26"/><circle class="cls-5" cx="391.62" cy="530.82" r="10.56"/></g></g></svg>