<svg xmlns="http://www.w3.org/2000/svg" xmlns:xlink="http://www.w3.org/1999/xlink" viewBox="0 0 498.67 462.32"><defs><style>.cls-1{fill:#40a8c4;}.cls-2{fill:#ffc93c;}.cls-3{fill:#ff6584;}.cls-10,.cls-4{opacity:0.1;}.cls-15,.cls-4{isolation:isolate;}.cls-5{fill:url(#linear-gradient);}.cls-6{fill:url(#linear-gradient-2);}.cls-7{fill:#fbbebe;}.cls-8{fill:#6c63ff;}.cls-9{fill:#3f3d56;}.cls-11{fill:#fff;}.cls-12{fill:#a2d5f2;}.cls-13{fill:#ffd037;}.cls-14{fill:#a8a8a8;}.cls-15{opacity:0.2;}.cls-16{fill:none;stroke:#a2d5f2;stroke-miterlimit:10;}</style><linearGradient id="linear-gradient" x1="390.11" y1="-2884.22" x2="390.11" y2="-2522.2" gradientTransform="matrix(1, 0, 0, -1, -142.33, -2425.97)" gradientUnits="userSpaceOnUse"><stop offset="0" stop-color="gray" stop-opacity="0.25"/><stop offset="0.54" stop-color="gray" stop-opacity="0.12"/><stop offset="1" stop-color="gray" stop-opacity="0.1"/></linearGradient><linearGradient id="linear-gradient-2" x1="369.54" y1="-2679.34" x2="369.54" y2="-2678.32" xlink:href="#linear-gradient"/></defs><title>thanks</title><g id="Layer_2" data-name="Layer 2"><g id="Layer_1-2" data-name="Layer 1"><ellipse class="cls-1" cx="267.97" cy="453.11" rx="120.47" ry="9.21"/><path class="cls-2" d="M154,44.83c16.89-15.07,43.46-18.15,67.64-16.93,75.93,3.77,144.47,40.43,203.75,81.89,21.46,15,42.59,31.19,56.53,51.86,28.36,42.08,19.95,100.38-19.49,135-13.42,11.79-29.68,20.84-46.38,28.87-29.69,14.25-61.73,25.69-95.43,28.95-24,2.32-48.36.43-72.25-2.81-66.74-9.09-132.26-29.07-187.17-63.35-24.09-15-46.79-33.69-56.71-58s-3.58-55.09,21-69.47c10.18-5.95,22.34-8.63,34.24-11.16,17.53-3.71,35.34-7.37,51.16-14.92,16.34-7.8,35.67-22.88,32.44-40.13C139.87,76.16,137.11,59.89,154,44.83Z"/><path class="cls-3" d="M321.52,39.65v1a6,6,0,0,1,0,.84v.17c0,.24,0,.47-.05.7v.31a4.62,4.62,0,0,1-.06.64c0,.21,0,.34-.05.51-.05.42-.1.84-.17,1.26s-.08.54-.13.83v.06c0,.13,0,.27-.07.41s0,.16-.05.24a.57.57,0,0,1,0,.22c0,.08-.05.29-.09.43l-.09.44c0,.15,0,.21-.07.32s-.08.37-.12.55a0,0,0,0,0,0,0l-.1.38-.12.45-.15.55a.21.21,0,0,1,0,.15l-.17.54c-.17.58-.36,1.15-.54,1.73l-.2.54-.11.3a38.85,38.85,0,0,1-5.31,9.55l-.41.54A41.87,41.87,0,0,1,310,67.12l-55.71,55.72-55.7-55.72a39.2,39.2,0,0,1-4.36-5.18A36.51,36.51,0,0,1,192,58.32a39.44,39.44,0,0,1-4.77-22.4c.06-.71.15-1.42.24-2.13.18-1.25.42-2.5.71-3.74.06-.25.13-.5.19-.75s.07-.25.1-.37l.06-.23.16-.54h0c.14-.44.27-.87.41-1.3l.2-.58c.29-.84.61-1.64,1-2.48l.21-.48.33-.74c.19-.39.38-.78.55-1.17l.05-.09h0c.08-.18.18-.35.27-.54l.32-.6.42-.73c.07-.12.14-.23.2-.35s.08-.12.12-.2v0h0l.27-.43.3-.48c.23-.35.47-.71.71-1.05l.25-.37.32-.44c.11-.16.23-.31.35-.46l.41-.55.38-.48.14-.16.28-.34.43-.51.19-.23,0,0,.33-.37.37-.41c.35-.38.71-.75,1.09-1.09L199,11l.67-.63c.15-.14.29-.27.45-.4s.34-.32.54-.47l.35-.29a3.27,3.27,0,0,1,.35-.3,5.79,5.79,0,0,1,.71-.54l.36-.29c.59-.45,1.2-.9,1.82-1.32l.37-.25L205,6.3l.35-.23.55-.32.26-.16.38-.22c.51-.3,1-.59,1.54-.86l.31-.17.48-.24.4-.2.4-.18.39-.2.41-.17.4-.18c.54-.23,1.09-.45,1.63-.66l.36-.22.43-.15.39-.14.33-.11.75-.24.39-.12.31-.09.3-.08a5.62,5.62,0,0,1,.55-.15L217,1c.74-.18,1.48-.34,2.23-.48l.3-.05L220,.42l.44-.07L221,.27l.32-.05c.72-.09,1.44-.17,2.18-.22h5.06a3.44,3.44,0,0,1,.55,0h.37l1.72.17.78.11.54.07.43.07.43.07.29,0q1.11.21,2.22.48l.9.23.25.07.39.11.75.22.32.11c.55.16,1.09.35,1.64.54l.37.14.48.18.73.3.84.36.33.14.44.22.4.18.39.2.5.25.39.21c.3.16.61.32.91.5l.38.21c.45.26.88.55,1.32.81l.35.22.38.25.37.25h0l.25.17c.54.36,1,.75,1.55,1.14l.36.28c.23.19.47.38.71.55l.34.29.35.29.55.47.44.41.63.66.43.43.44-.43.66-.63.45-.4c.15-.14.35-.32.54-.47l.35-.3.35-.29a8.5,8.5,0,0,1,.71-.55l.36-.28c.6-.46,1.2-.9,1.82-1.32l.37-.25.38-.25.35-.23.52-.33.26-.15.38-.23c.52-.3,1-.58,1.55-.86l.31-.16.48-.25.39-.19.4-.19.4-.19.4-.18.41-.17c.54-.24,1.09-.45,1.63-.66l.4-.15.43-.16.4-.13.32-.11.75-.24.39-.12.31-.09.3-.09.55-.14.71-.19c.74-.18,1.49-.34,2.23-.48l.31,0,.42-.07.44-.07.54-.08.33,0c.71-.09,1.43-.17,2.18-.22h5a3.38,3.38,0,0,1,.54,0h.37c.58,0,1.16.1,1.73.17l.77.1.55.08.43.07.43.07.28,0c.75.14,1.49.3,2.22.47l.91.24.25.07.39.11.75.22.32.11c.54.16,1.09.35,1.63.54l.37.14.48.18.73.3.84.36.32.14.45.21.4.19.39.2.5.25.39.2.91.5.38.22c.45.26.89.55,1.32.8l.35.23.38.25.37.25h0l.24.17c.55.36,1,.74,1.55,1.14l.36.28.71.54c.12.1.24.19.35.3l.35.29.45.41c.15.13.31.27.45.41l.26.23h0l0,0c.15.13.29.27.43.41l.2.19.23.24.43.44c.22.22.44.45.65.68s.25.27.37.41.41.45.61.69l.65.77c.73.9,1.42,1.83,2.07,2.77l.26.4c.1.14.18.29.28.43l.23.36L316,19l.34.59.21.36.16.29.15.28L317,21l.23.43c.51,1,1,2,1.39,3.07l.18.44c.17.43.33.85.48,1.29l.14.39.18.55.15.5.1.31c.05.16.09.31.14.46s.1.38.16.55.15.61.23.92l.11.48c.06.23.11.45.16.68a1.07,1.07,0,0,0,.06.3c0,.09.05.26.07.39s.05.21.06.31l.05.26a.47.47,0,0,0,.05.25c0,.08,0,.15,0,.24l.09.49a2.89,2.89,0,0,0,.07.49c0,.16.05.36.07.54s0,.35.06.55l0,.3c0,.18,0,.36.05.54V36c0,.18,0,.37.05.54v.74a3.82,3.82,0,0,0,0,.59h0v.61A8.24,8.24,0,0,1,321.52,39.65Z"/><path class="cls-4" d="M321.52,39.65v1a6,6,0,0,1,0,.84v.17c0,.24,0,.47-.05.7v.31a4.62,4.62,0,0,1-.06.64c0,.21,0,.34-.05.51-.05.42-.1.84-.17,1.26s-.08.54-.13.83v.06c0,.13,0,.27-.07.41s0,.16-.05.24a.57.57,0,0,1,0,.22c0,.08-.05.29-.09.43l-.09.44c0,.15,0,.21-.07.32s-.08.37-.12.55a0,0,0,0,0,0,0l-.1.38-.12.45-.15.55a.21.21,0,0,1,0,.15l-.17.54c-.17.58-.36,1.15-.54,1.73l-.2.54-.11.3a39.41,39.41,0,0,0-17.18-42.49c-.71-.45-1.43-.88-2.15-1.28a39.37,39.37,0,0,0-46.91,6.74A39.08,39.08,0,0,0,248,12.1h0a38.27,38.27,0,0,0-4.07-2.58,39.41,39.41,0,0,0-43.53,3.73,40,40,0,0,0-7.63,8.07,39.25,39.25,0,0,0-2.17,3.41v.05c-.62,1.1-1.18,2.22-1.69,3.38-.28.63-.54,1.27-.79,1.91.06-.25.13-.5.19-.74s.07-.26.1-.38l.06-.23.16-.54h0c.13-.43.27-.86.41-1.29l.2-.59c.29-.84.61-1.64,1-2.48l.21-.48.33-.74c.19-.39.38-.78.55-1.17l0-.08h0c.08-.18.18-.35.27-.55l.32-.59.42-.74c.06-.11.14-.23.2-.35l.12-.19v0h0l.27-.43.3-.48.71-1.05.25-.37.32-.44c.11-.16.23-.31.35-.46l.41-.55.38-.48.14-.16.28-.34.43-.51.19-.22,0,0,.33-.37.37-.41c.35-.38.71-.75,1.09-1.09l.43-.43.67-.63.44-.4c.16-.13.35-.32.55-.47l.35-.29c.11-.11.23-.2.35-.3a8.87,8.87,0,0,1,.71-.54l.35-.29q.9-.68,1.83-1.32l.37-.25.38-.24.35-.23.55-.33.26-.16.38-.22c.51-.3,1-.59,1.54-.86l.31-.17.48-.24.4-.2.4-.18.39-.19.41-.18.4-.18c.54-.23,1.09-.45,1.63-.66l.37-.24.43-.15.39-.14.33-.11.75-.24.39-.12.31-.09.3-.08a5.62,5.62,0,0,1,.55-.15L217,1c.74-.18,1.48-.34,2.23-.48l.3-.05L220,.42l.44-.07L221,.27l.32-.05c.72-.09,1.44-.17,2.18-.22h5.06a3.44,3.44,0,0,1,.55,0h.37l1.72.17.78.11.54.07.43.07.43.07.29,0q1.11.21,2.22.48l.9.23.25.07.39.11.75.22.32.11c.55.16,1.09.35,1.64.54l.37.14.48.18.73.3.84.36.33.14.44.22.4.18.39.2.5.25.39.21c.3.16.61.32.91.5l.38.21c.45.26.88.55,1.32.81l.35.22.38.25.37.25h0l.25.17c.54.36,1,.75,1.55,1.14l.36.28c.23.19.47.38.71.55l.34.29.35.29.55.47.44.41.63.66.43.43.44-.43.66-.63.45-.4c.15-.14.35-.32.54-.47l.35-.3.35-.29a8.5,8.5,0,0,1,.71-.55l.36-.28c.6-.46,1.2-.9,1.82-1.32l.37-.25.38-.25.35-.23.52-.33.26-.15.38-.23c.52-.3,1-.58,1.55-.86l.31-.16.48-.25.39-.19.4-.19.4-.19.4-.18.41-.17c.54-.24,1.09-.45,1.63-.66l.4-.15.43-.16.4-.13.32-.11.75-.24.39-.12.31-.09.3-.09.55-.14.71-.19c.74-.18,1.49-.34,2.23-.48l.31,0,.42-.07.44-.07.54-.08.33,0c.71-.09,1.43-.17,2.18-.22h5a3.38,3.38,0,0,1,.54,0h.37c.58,0,1.16.1,1.73.17l.77.1.55.08.43.07.43.07.28,0c.75.14,1.49.3,2.22.47l.91.24.25.07.39.11.75.22.32.11c.54.16,1.09.35,1.63.54l.37.14.48.18.73.3.84.36.32.14.45.21.4.19.39.2.5.25.39.2.91.5.38.22c.45.26.89.55,1.32.8l.35.23.38.25.37.25h0l.24.17c.55.36,1,.74,1.55,1.14l.36.28.71.54c.12.1.24.19.35.3l.35.29.45.41c.15.13.31.27.45.41l.26.23h0l0,0c.15.13.29.27.43.41l.2.19.23.24.43.44c.22.22.44.45.65.68s.25.27.37.41.41.45.61.69l.65.77c.73.9,1.42,1.83,2.07,2.77l.26.4c.1.14.18.29.28.43l.23.36L316,19l.34.59.21.36.16.29.15.28L317,21l.23.43c.51,1,1,2,1.39,3.07l.18.44c.17.43.33.85.48,1.29l.14.39.18.55.15.5.1.31c.05.16.09.31.14.46s.1.38.16.55.15.61.23.92l.11.48c.06.23.11.45.16.68a1.07,1.07,0,0,0,.06.3c0,.09.05.26.07.39s.05.21.06.31l.05.26a.47.47,0,0,0,.05.25c0,.08,0,.15,0,.24l.09.49a2.89,2.89,0,0,0,.07.49c0,.16.05.36.07.54s0,.35.06.55l0,.3c0,.18,0,.36.05.54V36c0,.18,0,.37.05.54v.74a3.82,3.82,0,0,0,0,.59h0v.61A8.24,8.24,0,0,1,321.52,39.65Z"/><path class="cls-3" d="M412.68,161.05v1.25l-.05.39a2.17,2.17,0,0,1,0,.25h0v.4l0,.13v.1a.31.31,0,0,1,0,.17h0l0,.11,0,.14,0,.17v.05a.88.88,0,0,1-.06.17c0,.18-.1.35-.16.54s-.05.12-.06.17l0,.09a11.93,11.93,0,0,1-1.59,2.91l-.13.17a13.88,13.88,0,0,1-1,1.16l-17.19,17-17-17a11.91,11.91,0,0,1-1.34-1.58,11.14,11.14,0,0,1-.69-1.09,12,12,0,0,1-1.46-6.83,5,5,0,0,1,.08-.66c.06-.38.13-.76.22-1.14a1.06,1.06,0,0,1,0-.23l0-.11v-.07l.05-.17h0c0-.13.08-.26.12-.39s0-.12.06-.18c.09-.26.19-.51.29-.75l.07-.16.1-.22a3.84,3.84,0,0,1,.18-.35v0h0l.08-.16.1-.18.13-.23.06-.1,0-.06h0s.05-.09.07-.13l.1-.15a3.34,3.34,0,0,1,.21-.32l.08-.11.1-.14.1-.14.13-.17.12-.14,0-.05.08-.11.14-.15.05-.07h0l.11-.11a1.27,1.27,0,0,1,.11-.13s.21-.23.33-.34l.13-.13.2-.19.14-.13.16-.14.1-.09.11-.09.21-.17.12-.09.54-.4.12-.08.11-.08.11-.06.16-.11.08,0,.11-.07.47-.26.1,0,.14-.08.12-.06.13-.06.12,0,.12-.06.12-.05.5-.2.12-.05.14,0,.11-.05.1,0,.23-.07.12,0,.09,0,.1,0,.17,0,.21-.05.68-.15H382l.65-.07h1.83l.54,0,.24,0h.51c.23,0,.45.08.68.14l.27.07h.08l.12,0,.23.07.1,0,.49.17.12,0,.14.06.23.09.25.11.1,0,.14.06.12.06.12.06.15.07.12.07.28.15.11.07c.14.07.28.16.41.24l.11.07.11.07.11.08h0l.08.05.47.35.11.09.22.17.1.09.11.09.16.14.14.13.2.19.14.13a.53.53,0,0,1,.13-.13l.2-.19.13-.13.16-.14.11-.09.1-.09.22-.17.11-.09.55-.41.11-.07.11-.08.11-.06.16-.11.08,0,.12-.07a4.31,4.31,0,0,1,.47-.26l.09-.05.15-.08.12-.06.12-.06.13-.05.12-.06.12,0,.5-.2.12,0,.13-.05.12,0,.1,0,.23-.07.12,0,.09,0,.1,0,.16,0,.22,0c.23-.06.45-.11.68-.15H399l.66-.07h1.82l.55,0a.45.45,0,0,1,.23,0h.51a5.12,5.12,0,0,1,.68.14l.28.07h.07l.12,0,.23.07.1,0,.5.17.11,0,.14.06.23.09.25.11.1.05.14.06.12.06.12.06.15.07.12.07.28.15.12.07.4.24.11.07.11.07.11.08h0l.07.05c.17.11.32.23.48.35l.11.08.21.18.11.09.11.09.14.12.13.13.08.07h0l.13.13.06.05.07.07.13.14.2.2.11.13.19.21.2.24a7.79,7.79,0,0,1,.63.85l.08.12.08.13.08.11.12.19.1.18.06.11.05.09.05.08.07.13.06.14a9.83,9.83,0,0,1,.43.93c0,.05,0,.09.06.13l.14.4a.15.15,0,0,0,0,.12s0,.11.06.17a.88.88,0,0,1,.05.15l0,.1a1,1,0,0,0,0,.14l.05.17c0,.09.05.19.07.28s0,.1,0,.15a1.55,1.55,0,0,0,0,.21.24.24,0,0,1,0,.09v1.58h0v.39h0v.18C412.35,160.74,412.68,160.93,412.68,161.05Z"/><path class="cls-4" d="M412.68,161.05v1.25l-.05.39a2.17,2.17,0,0,1,0,.25h0v.4l0,.13v.1a.31.31,0,0,1,0,.17h0l0,.11,0,.14,0,.17v.05a.88.88,0,0,1-.06.17c0,.18-.1.35-.16.54s-.05.12-.06.17l0,.09a11.87,11.87,0,0,0,.33-2.91,12,12,0,0,0-5.57-10.05l-.66-.4a12.06,12.06,0,0,0-11.57,0,11.91,11.91,0,0,0-2.72,2.05,11.77,11.77,0,0,0-1.47-1.26h0a14.46,14.46,0,0,0-1.24-.79A12,12,0,0,0,375.9,153a12.12,12.12,0,0,0-1,.9,12.37,12.37,0,0,0-1.32,1.56c-.24.34-.46.69-.66,1h0c-.19.34-.36.68-.52,1-.08.2-.16.39-.23.59a1,1,0,0,1,.05-.23l0-.11v-.07l.05-.17h0c0-.13.08-.26.13-.4a.88.88,0,0,1,.06-.18,7.71,7.71,0,0,1,.29-.75l.07-.15.09-.22.18-.36v0h0l.09-.16.1-.18.12-.23.07-.1,0-.06h0s.05-.09.08-.13l.09-.15a3.84,3.84,0,0,1,.22-.32L374,154l.09-.13.11-.14.13-.17.11-.15.05,0,.08-.1.13-.16.06-.06h0l.1-.12a1.36,1.36,0,0,1,.12-.12c0-.05.21-.23.32-.35l.13-.12.21-.2.13-.12.16-.14.11-.09.11-.09.21-.18.11-.08L377,151l.11-.07.11-.08.11-.07.16-.1.08,0,.12-.07c.15-.1.31-.18.47-.27l.09,0,.15-.08.12-.06.12-.06.12-.05.12-.06.13,0,.5-.21.12,0,.13-.05.12,0,.1,0,.23-.08.12,0,.09,0,.09,0,.17,0,.22-.06c.22-.06.45-.1.68-.14h.62c.22,0,.44-.06.66-.07h1.83l.54,0,.24,0H386c.23,0,.45.09.68.15l.27.07H387l.12,0,.23.07.09,0,.5.17.11,0,.15.06.22.09.25.11.11,0,.13.06.12.06.12.06.16.08.12.07.27.14.12.07.4.25.11.06.12.08.11.08h0l.08.05.47.34a.31.31,0,0,0,.11.09l.22.18.1.09.11.09.16.14.13.12.21.2.13.12.13-.12.2-.2.14-.12.16-.14.11-.09.1-.09.22-.18a.44.44,0,0,0,.11-.09l.54-.4.12-.08.11-.07.11-.07.16-.1.08,0,.11-.07.48-.27.09,0,.15-.07.12-.06.12-.06.12-.06.12-.05.13-.05.49-.21.13,0,.13,0,.12,0,.1,0,.23-.07.12,0,.09,0,.09,0,.16,0,.22-.06.69-.14h.61c.23,0,.45-.06.66-.07h1.83l.54.05a.63.63,0,0,1,.24,0H403l.68.14.27.07H404l.12,0,.23.07.1,0a4.75,4.75,0,0,1,.49.17l.11,0,.15.06.22.09.26.1.1,0,.13.06.13.06.12.06.14.08.13.06.27.15.12.07.41.25.1.06.11.08.12.08h0l.07,0c.16.11.32.22.47.34l.12.09.21.17.11.1.1.08.14.13.14.13.08.07h0l.13.12.06.06.07.07.13.13.2.21a.69.69,0,0,1,.11.13l.19.21.2.23c.22.27.43.55.63.85l.08.12.08.13.07.11.12.2.1.17.07.12.05.08,0,.09a.54.54,0,0,1,.07.13l.07.13c.16.31.3.62.43.93,0,0,0,.1.05.14l.15.39a.17.17,0,0,0,0,.13s0,.11.06.17a.83.83,0,0,1,0,.15l0,.09a.7.7,0,0,0,0,.14l.05.18a2.29,2.29,0,0,1,.07.28.57.57,0,0,1,0,.14,1,1,0,0,0,.05.22.17.17,0,0,1,0,.08v1.58h0v.11a.17.17,0,0,0,0,.1v.18h0v.19A3.37,3.37,0,0,1,412.68,161.05Z"/><path class="cls-3" d="M333.86,138.49v1.27a1,1,0,0,1-.05.38c-.05.13,0,.17,0,.25h0a.28.28,0,0,1,0,.13.11.11,0,0,1,0,.08v.19l0,.13v.1a1,1,0,0,1,0,.17h0v.11s0,.1,0,.15l0,.17v0l-.05.17c-.06.18-.11.36-.18.55a.52.52,0,0,1-.06.16l0,.09a12,12,0,0,1-1.6,2.91l-.12.17a12.62,12.62,0,0,1-1,1.16l-17,17-17-17a12.41,12.41,0,0,1-2-2.67,12,12,0,0,1-1.45-6.83,4.76,4.76,0,0,1,.07-.66,9.16,9.16,0,0,1,.22-1.14.65.65,0,0,1,.06-.23.5.5,0,0,1,0-.12v-.06l.05-.18h0l.12-.39.07-.18a7.71,7.71,0,0,1,.29-.75l.06-.15c0-.08.07-.15.1-.22l.18-.36v0h0l.08-.17.1-.17.13-.23.06-.11,0-.06h0l.08-.13.09-.14.21-.33.09-.11.09-.13.11-.14.12-.17.12-.14,0-.06.09-.1.13-.15.06-.08h0l.1-.11.11-.12.33-.34.13-.13.21-.19a.8.8,0,0,1,.13-.13l.16-.14.11-.09.1-.09.22-.18.11-.08.54-.41.12-.07.11-.08.11-.07.16-.1.08-.05.12-.07.46-.26.1,0v-.12l.12-.06.12-.06.12-.06.13,0,.12-.06.5-.2.12,0,.13,0,.12,0,.1,0,.23-.08.11,0,.1,0,.1,0,.16-.05.22-.06.68-.14h.62l.66-.07h1.82a5.35,5.35,0,0,1,.55,0l.23,0H307c.23,0,.46.09.68.15l.28.07h.07l.12,0,.23.07.1,0,.49.17.12,0,.14.06.23.09.25.11.1,0,.14.07.12,0,.12.06.15.08.12.06.28.16.12.06.39.25.11.07.12.07.11.08h0l.08.05.47.35a.31.31,0,0,1,.11.09,1.84,1.84,0,0,1,.22.17l.11.09.1.09.16.14.14.13.2.19.13.13.13-.13.21-.19.13-.13.16-.14.11-.09.11-.09a1.84,1.84,0,0,1,.22-.17.41.41,0,0,1,.1-.09l.55-.41.11-.07.12-.08.1-.07.16-.1.08-.05.12-.07.47-.26.09,0,.15-.07.12-.06.12-.06.12-.06.13,0,.12-.06.5-.2.12,0,.13,0,.12,0,.1,0,.23-.08.12,0,.09,0,.09,0,.17,0,.22-.06.68-.15h.62l.66-.06h1.83l.54.05.24,0h.5c.23,0,.45.09.68.15l.28.07h.07l.12,0,.23.07.1,0,.49.17.12,0,.15.06.22.09.25.11.1,0,.14.07.12,0,.12.06.15.08.12.06.28.16.11.06.41.25.11.07.11.07.11.08h0l.08.05.47.35.11.08.22.18.1.09.11.09.14.12.14.12.08.08h0l.13.13.06.05.08.08.13.13.19.21.12.12.18.21.2.24a9.36,9.36,0,0,1,.63.85l.08.12.08.13a.41.41,0,0,1,.07.11,1,1,0,0,1,.12.19l.11.18.06.11.05.09.05.08.07.13c0,.05,0,.09.07.14.15.3.3.62.42.93l.06.14c.05.13.1.26.14.39a.31.31,0,0,0,.05.12l0,.17.05.15a.12.12,0,0,0,0,.1s0,.09,0,.14l.05.17a1.43,1.43,0,0,0,.07.28l0,.15,0,.21v.09a.24.24,0,0,1,0,.12.14.14,0,0,1,0,.09.14.14,0,0,1,0,.09v.14a.38.38,0,0,1,0,.15.38.38,0,0,1,0,.15.34.34,0,0,0,0,.17v.67h0v.39h0v.18C333.86,138.24,333.86,138.36,333.86,138.49Z"/><path class="cls-4" d="M333.86,138.49v1.27a1,1,0,0,1-.05.38c-.05.13,0,.17,0,.25h0a.28.28,0,0,1,0,.13.11.11,0,0,1,0,.08v.19l0,.13v.1a1,1,0,0,1,0,.17h0v.11s0,.1,0,.15l0,.17v0l-.05.17c-.06.18-.11.36-.18.55a.52.52,0,0,1-.06.16l0,.09a12,12,0,0,0-5.25-13c-.21-.14-.43-.27-.65-.39a12,12,0,0,0-11.58,0,11.35,11.35,0,0,0-1.14.71,11.75,11.75,0,0,0-1.57,1.33,11.57,11.57,0,0,0-1.47-1.25h0a12.37,12.37,0,0,0-1.24-.79,12,12,0,0,0-14.29,2,10.88,10.88,0,0,0-1.55,1.56c-.24.34-.46.69-.66,1h0a10.94,10.94,0,0,0-.51,1,6.07,6.07,0,0,0-.24.59.86.86,0,0,1,.06-.23.5.5,0,0,1,0-.12v-.06l0-.18h0l.12-.39.07-.18c.09-.26.18-.51.29-.76l.06-.14c0-.08.07-.16.11-.23l.17-.36v0h0l.08-.17.1-.18.13-.22.06-.11,0-.06h0l.08-.13.09-.15.22-.32.08-.11.1-.13.1-.15.12-.16.12-.15,0-.05.09-.1.13-.16.06-.07h0l.1-.11.11-.13.33-.34.13-.13.21-.19.13-.12.16-.14.11-.1.1-.08.22-.18.11-.08c.18-.15.37-.28.55-.41l.11-.07.11-.08.11-.07.16-.1.08-.05.12-.07.47-.26.09,0,.21-.09.12-.06.12-.06.12-.06.13,0,.12-.06.5-.2.12,0,.13,0,.12,0,.1,0,.23-.08.11,0,.1,0,.1,0,.16-.05.22-.06.68-.14h.62l.66-.07h1.82a5.35,5.35,0,0,1,.55,0l.23,0H307c.23,0,.46.09.68.15l.28.07h.07l.12,0,.23.07.1,0,.49.17.12,0,.14.06.23.09.25.11.1,0,.14.07.12,0,.12.06.15.08.12.06.28.16.12.06.39.25.11.07.12.07.11.08h0l.08.05.47.35a.31.31,0,0,1,.11.09,1.84,1.84,0,0,1,.22.17l.11.09.1.09.16.14.14.13.2.19.13.13.13-.13.21-.19.13-.13.16-.14.11-.09.11-.09a1.84,1.84,0,0,1,.22-.17.41.41,0,0,1,.1-.09l.55-.41.11-.07.12-.08.1-.07.16-.1.08-.05.12-.07.47-.26.09,0,.15-.07.12-.06.12-.06.12-.06.13,0,.12-.06.5-.2.12,0,.13,0,.12,0,.1,0,.23-.08.12,0,.09,0,.09,0,.17,0,.22-.06.68-.15h.62l.66-.06h1.83l.54.05.24,0h.5c.23,0,.45.09.68.15l.28.07h.07l.12,0,.23.07.1,0,.49.17.12,0,.15.06.22.09.25.11.1,0,.14.07.12,0,.12.06.15.08.12.06.28.16.11.06.41.25.11.07.11.07.11.08h0l.08.05.47.35.11.08.22.18.1.09.11.09.14.12.14.12.08.08h0l.13.13.06.05.08.08.13.13.19.21.12.12.18.21.2.24a9.36,9.36,0,0,1,.63.85l.08.12.08.13a.41.41,0,0,1,.07.11,1,1,0,0,1,.12.19l.11.18.06.11.05.09.05.08.07.13c0,.05,0,.09.07.14.15.3.3.62.42.93l.06.14c.05.13.1.26.14.39a.31.31,0,0,0,.05.12l0,.17.05.15a.12.12,0,0,0,0,.1s0,.09,0,.14l.05.17a1.43,1.43,0,0,0,.07.28l0,.15,0,.21v.09a.24.24,0,0,1,0,.12.14.14,0,0,1,0,.09.14.14,0,0,1,0,.09v.14a.38.38,0,0,1,0,.15.38.38,0,0,1,0,.15.34.34,0,0,0,0,.17v.67h0v.39h0v.18C333.86,138.24,333.86,138.36,333.86,138.49Z"/><path class="cls-3" d="M173.12,150.44v1.24a2.6,2.6,0,0,1-.05.39c0,.13,0,.17,0,.25h0v.4l0,.13v.1a.25.25,0,0,1,0,.17h0l0,.12,0,.13,0,.17a0,0,0,0,1,0,.05l0,.17c-.06.18-.11.35-.18.54l-.06.17,0,.1a12.08,12.08,0,0,1-1.6,2.9l-.12.17a14.1,14.1,0,0,1-1,1.16l-17,17-17-17a12.5,12.5,0,0,1-1.33-1.58c-.25-.36-.48-.73-.69-1.09a12,12,0,0,1-1.45-6.84,4.78,4.78,0,0,1,.07-.65,8.82,8.82,0,0,1,.22-1.14,1,1,0,0,1,.05-.23l0-.11v-.08a.49.49,0,0,1,0-.16h0a3,3,0,0,1,.12-.4c0-.13,0-.12.06-.18.09-.25.18-.5.29-.75l.07-.15a2.14,2.14,0,0,1,.1-.22l.17-.36v0h0l.08-.15.1-.18.13-.23.06-.11,0-.06h0L134,144l.1-.14.21-.32.08-.12.1-.14a1.13,1.13,0,0,1,.1-.13,1.09,1.09,0,0,1,.13-.17l.12-.15,0-.05.09-.1.13-.16.06-.06h0l.1-.12.12-.12.32-.35.13-.12.21-.2.14-.12.15-.14.11-.09.11-.09.21-.18.11-.09.55-.4.11-.08.12-.07.11-.07.15-.1.08,0,.12-.07c.15-.1.31-.18.47-.27l.1-.05.05-.08.12-.06.12-.06.12-.05.12-.06.12,0,.5-.2.12,0,.13,0,.12,0,.11,0,.22-.07.12,0,.1,0h.09l.16,0,.22-.05c.23-.06.45-.11.68-.15h.36l.16,0h.1c.22,0,.44-.05.66-.07H145l.55.05.23,0,.16,0h.35l.68.14.28.07h.07l.12,0,.23.07.09,0c.17.06.34.11.5.18l.11,0,.15.06.22.09.26.11.1,0,.13.06.12.06.12.06.16.08.12.06.27.15.12.07.4.24.11.07.11.08.12.07h0l.08.06.47.34.11.09.22.17.1.09.11.09.16.14.13.13.21.19.13.13.13-.13.2-.19.14-.13.16-.14.11-.09.11-.09.21-.17.11-.09.55-.4.11-.08.12-.08.1-.06.16-.1.08,0L155,140l.47-.26.09-.06.15-.07.12-.06.12-.06.12-.05.13,0,.12-.06.49-.2.13,0,.13,0,.12-.05.1,0,.23-.07.12,0,.09,0h.09l.17,0,.22,0c.22-.06.45-.11.68-.15h.35l.17,0h.1c.22,0,.44-.05.66-.07H162l.55.06.24,0,.16,0h.35l.68.14.27.07h.08l.11,0,.23.08.1,0,.5.18.11,0,.15.06.22.08.25.11.11.05.13.06.12.06.12.06.15.08.12.06.28.15.12.07.4.25.11.06.11.08.12.07h0l.07.06.48.34.11.09.22.17.1.09.11.09.13.13.14.12.08.07h0l.14.13.05.05.08.07.13.14.2.21.11.12.19.22.19.23a7.79,7.79,0,0,1,.63.85l.08.12.09.13.07.11.12.19.1.18.07.11,0,.09,0,.09.07.12.07.14a9.83,9.83,0,0,1,.43.93l.05.14.15.39,0,.12a.58.58,0,0,0,.06.17l0,.16a.11.11,0,0,0,0,.09l0,.14a1.54,1.54,0,0,1,.05.17c0,.1,0,.19.07.28l0,.15.05.21v1.67h0a.17.17,0,0,0,0,.1v.29h0v.19C172.87,150.15,173.12,150.32,173.12,150.44Z"/><path class="cls-4" d="M173.12,150.44v1.24a2.6,2.6,0,0,1-.05.39c0,.13,0,.17,0,.25h0v.4l0,.13v.1a.25.25,0,0,1,0,.17h0l0,.12,0,.13,0,.17a0,0,0,0,1,0,.05l0,.17c-.06.18-.11.35-.18.54l-.06.17,0,.1a11.73,11.73,0,0,0-5.45-12.94c-.22-.15-.44-.27-.66-.4a11.85,11.85,0,0,0-12.71.72,11.13,11.13,0,0,0-1.58,1.33,11.77,11.77,0,0,0-1.47-1.26h0a14.46,14.46,0,0,0-1.24-.79,12.08,12.08,0,0,0-11.58,0,11.53,11.53,0,0,0-1.7,1.15,12.08,12.08,0,0,0-2.33,2.46c-.24.34-.46.69-.66,1h0c-.18.34-.36.68-.51,1s-.16.39-.24.59a1.89,1.89,0,0,1,0-.23l0-.11a.11.11,0,0,1,0-.08.47.47,0,0,1,0-.16h0l.12-.4c0-.13,0-.12.06-.18.09-.25.19-.5.29-.75l.07-.15a2.14,2.14,0,0,1,.1-.22l.18-.36v0h0l.08-.15.1-.18.13-.23.06-.11,0-.06h0l.08-.13.09-.14.21-.32.08-.12.1-.14.11-.13a1,1,0,0,1,.12-.17l.12-.15,0-.05.08-.1.14-.16.06-.06h0l.09-.12.12-.12.33-.35.13-.12.2-.2.14-.12.16-.14.11-.09.1-.09.22-.18.11-.09.54-.4.12-.08.11-.07.11-.07.16-.1.07,0,.12-.07.47-.27.1-.05.25-.08.12-.06.12-.06.12-.05.12-.06.12,0,.5-.2.12,0,.13,0,.12,0,.11,0,.22-.07.12,0,.1,0h.09l.16,0,.22-.05c.23-.06.45-.11.68-.15h.36l.16,0h.1c.22,0,.44-.05.66-.07H145l.55.05.23,0,.16,0h.35l.68.14.28.07h.07l.12,0,.23.07.09,0c.17.06.34.11.5.18l.11,0,.15.06.22.09.26.11.1,0,.13.06.12.06.12.06.16.08.12.06.27.15.12.07.4.24.11.07.11.08.12.07h0l.08.06.47.34.11.09.22.17.1.09.11.09.16.14.13.13.21.19.13.13.13-.13.2-.19.14-.13.16-.14.11-.09.11-.09.21-.17.11-.09.55-.4.11-.08.12-.08.1-.06.16-.1.08,0L155,140l.47-.26.09-.06.15-.07.12-.06.12-.06.12-.05.13,0,.12-.06.49-.2.13,0,.13,0,.12-.05.1,0,.23-.07.12,0,.09,0h.09l.17,0,.22,0c.22-.06.45-.11.68-.15h.35l.17,0h.1c.22,0,.44-.05.66-.07H162l.55.06.24,0,.16,0h.35l.68.14.27.07h.08l.11,0,.23.08.1,0,.5.18.11,0,.15.06.22.08.25.11.11.05.13.06.12.06.12.06.15.08.12.06.28.15.12.07.4.25.11.06.11.08.12.07h0l.07.06.48.34.11.09.22.17.1.09.11.09.13.13.14.12.08.07h0l.14.13.05.05.08.07.13.14.2.21.11.12.19.22.19.23a7.79,7.79,0,0,1,.63.85l.08.12.09.13.07.11.12.19.1.18.07.11,0,.09,0,.09.07.12.07.14a9.83,9.83,0,0,1,.43.93l.05.14.15.39,0,.12a.58.58,0,0,0,.06.17l0,.16a.11.11,0,0,0,0,.09l0,.14a1.54,1.54,0,0,1,.05.17c0,.1,0,.19.07.28l0,.15.05.21v1.67h0a.17.17,0,0,0,0,.1v.29h0v.19C172.87,150.15,173.12,150.32,173.12,150.44Z"/><path class="cls-3" d="M167.86,237.19v1.26l-.05.39a.55.55,0,0,1,0,.25h0v.2a.06.06,0,0,1,0,.06.68.68,0,0,1,0,.14l0,.13v.1a.31.31,0,0,1,0,.17h0l0,.11,0,.14,0,.17v0a1.84,1.84,0,0,1-.06.18c0,.17-.11.35-.17.54l-.06.17a.36.36,0,0,1,0,.09,11.6,11.6,0,0,1-1.59,2.91l-.12.16a11.38,11.38,0,0,1-1,1.16l-17,17-17-17a12.41,12.41,0,0,1-2-2.67,11.87,11.87,0,0,1-1.45-6.83,4.62,4.62,0,0,1,.07-.65,9.31,9.31,0,0,1,.22-1.15,1.06,1.06,0,0,1,.05-.23l0-.11v-.06l0-.18h0c0-.13.08-.26.13-.39l.06-.18c.09-.26.18-.51.29-.76l-.08-.15.1-.22c.06-.12.11-.24.18-.36v0h0l.08-.16.1-.18a1.59,1.59,0,0,1,.13-.22l.06-.11,0-.06h0s.05-.09.07-.13l.1-.15.21-.32a1,1,0,0,1,.08-.11l.1-.14.1-.14.13-.17.12-.14,0-.05.08-.11.14-.15.06-.07h0l.1-.11.16-.14c.1-.11.21-.23.33-.34l.13-.13.2-.19.13-.12L131,228l.1-.09.11-.09a1.84,1.84,0,0,1,.22-.17l.11-.09c.18-.14.36-.28.54-.4l.12-.08a.41.41,0,0,1,.11-.07l.1-.07.17-.1.07-.05.12-.07.47-.26.1-.05.14-.08.12-.06.13-.05.12-.06.12-.06.12,0,.5-.2.12,0,.13-.05.12,0,.1,0,.23-.07.12,0,.09,0h.1l.16,0,.22-.05c.23-.06.45-.11.68-.15h.62l.66-.06h1.81l.55,0,.24,0h.5c.23,0,.46.08.68.14l.28.08h.07l.12,0,.23.07.1,0,.5.17.11,0,.15.06.22.09.25.11.11,0,.13.07.12,0,.12.06.15.08.12.06.28.16.12.06.4.25.11.07.11.08.12.07h0l.07,0,.48.35.11.09.21.17.11.09.11.09.15.14.14.12.2.2.14.13.13-.13.2-.2.14-.12L148,228l.11-.09.11-.09.22-.17.1-.09c.19-.14.37-.28.55-.4l.11-.08.12-.08.11-.07.15-.1.09,0,.11-.08.47-.26.1-.05.14-.07.12-.06.12-.06.13-.06.12,0,.12-.06.5-.2.13,0,.13,0,.12,0,.09,0,.23-.08.12,0,.1,0h.09l.16-.05.23-.06.68-.14h.61l.66-.07h1.81a5.16,5.16,0,0,1,.54,0l.24,0H158c.23,0,.45.09.68.15l.27.07h.08l.12,0,.23.06.1,0,.49.17.11,0,.15.05.22.1.26.11.1,0,.13.07.13.05.12.06.15.08.12.06.27.15.12.07.41.24.1.08.12.07.11.08h0l.07.05.47.35.12.08.21.18.11.08.1.1.14.12.14.12.08.08h0l.13.12.06.06.07.07.13.13.2.22.11.12.19.21.2.23c.22.28.43.55.63.85l.08.12.08.13.07.12.12.19.11.18.06.11.05.09s0,.06,0,.08l.07.13.08.13c.15.31.29.63.42.94,0,0,0,.09.05.14l.15.39,0,.12a.7.7,0,0,0,.06.17.83.83,0,0,1,0,.15l0,.1,0,.14,0,.17a2.29,2.29,0,0,1,.07.28.83.83,0,0,1,0,.15.8.8,0,0,0,0,.21v1.66h0v.11a.2.2,0,0,0,0,.11v.18h0v.19C167.57,236.92,167.87,237.07,167.86,237.19Z"/><path class="cls-4" d="M167.86,237.19v1.26l-.05.39a.55.55,0,0,1,0,.25h0v.2a.06.06,0,0,1,0,.06.68.68,0,0,1,0,.14l0,.13v.1a.31.31,0,0,1,0,.17h0l0,.11,0,.14,0,.17v0a1.84,1.84,0,0,1-.06.18c0,.17-.11.35-.17.54l-.06.17a.36.36,0,0,1,0,.09,11.41,11.41,0,0,0,.34-2.91,12.36,12.36,0,0,0-.41-3,12.11,12.11,0,0,0-5.17-7c-.21-.13-.43-.26-.66-.38a12,12,0,0,0-11.57,0,11.35,11.35,0,0,0-1.14.71,11.53,11.53,0,0,0-1.71,1.33,11.57,11.57,0,0,0-1.47-1.25h0a12.51,12.51,0,0,0-1.25-.79,12,12,0,0,0-13.28,1.14,11.75,11.75,0,0,0-2.32,2.46c-.24.34-.46.69-.66,1h0c-.19.34-.36.68-.52,1-.08.19-.16.39-.23.59a.86.86,0,0,1,0-.23l0-.12v-.06l0-.18h0c0-.13.08-.26.13-.39l.06-.18c.09-.25.18-.51.29-.76l0-.12.1-.22.18-.36v0h0l.08-.16.1-.18a1.59,1.59,0,0,1,.13-.22l.06-.11,0-.06h0s.05-.09.07-.13l.1-.15.21-.32a1,1,0,0,1,.08-.11l.1-.14.1-.14.13-.17.12-.14,0-.05.08-.11.14-.15.06-.07h0l.1-.11.16-.14c.1-.11.21-.23.33-.34l.13-.13.2-.19.13-.12L131,228l.1-.09.11-.09a1.84,1.84,0,0,1,.22-.17l.11-.09c.18-.14.36-.28.54-.4l.12-.08a.41.41,0,0,1,.11-.07l.1-.07.17-.1.07-.05.12-.07.47-.26.1-.05.14-.08.12-.06.13-.05.12-.06.12-.06.12,0,.5-.2.12,0,.13-.05.12,0,.1,0,.23-.07.12,0,.09,0h.1l.16,0,.22-.05c.23-.06.45-.11.68-.15h.62l.66-.06h1.81l.55,0,.24,0h.5c.23,0,.46.08.68.14l.28.08h.07l.12,0,.23.07.1,0,.5.17.11,0,.15.06.22.09.25.11.11,0,.13.07.12,0,.12.06.15.08.12.06.28.16.12.06.4.25.11.07.11.08.12.07h0l.07,0,.48.35.11.09.21.17.11.09.11.09.15.14.14.12.2.2.14.13.13-.13.2-.2.14-.12L148,228l.11-.09.11-.09.22-.17.1-.09c.19-.14.37-.28.55-.4l.11-.08.12-.08.11-.07.15-.1.09,0,.11-.08.47-.26.1-.05.14-.07.12-.06.12-.06.13-.06.12,0,.12-.06.5-.2.13,0,.13,0,.12,0,.09,0,.23-.08.12,0,.1,0h.09l.16-.05.23-.06.68-.14h.61l.66-.07h1.81a5.16,5.16,0,0,1,.54,0l.24,0H158c.23,0,.45.09.68.15l.27.07h.08l.12,0,.23.06.1,0,.49.17.11,0,.15.05.22.1.26.11.1,0,.13.07.13.05.12.06.15.08.12.06.27.15.12.07.41.24.1.08.12.07.11.08h0l.07.05.47.35.12.08.21.18.11.08.1.1.14.12.14.12.08.08h0l.13.12.06.06.07.07.13.13.2.22.11.12.19.21.2.23c.22.28.43.55.63.85l.08.12.08.13.07.12.12.19.11.18.06.11.05.09s0,.06,0,.08l.07.13.08.13c.15.31.29.63.42.94,0,0,0,.09.05.14l.15.39,0,.12a.7.7,0,0,0,.06.17.83.83,0,0,1,0,.15l0,.1,0,.14,0,.17a2.29,2.29,0,0,1,.07.28.83.83,0,0,1,0,.15.8.8,0,0,0,0,.21v1.66h0v.11a.2.2,0,0,0,0,.11v.18h0v.19C167.57,236.92,167.87,237.07,167.86,237.19Z"/><path class="cls-3" d="M213.13,181.44v.14a.08.08,0,0,1,0,.07v.57a.21.21,0,0,1,0,.11l0,.27,0,.17h0v.57h0v.07a.17.17,0,0,1,0,.11l0,.12v0l0,.13c0,.12-.08.25-.12.37s0,.08,0,.12l0,.06a8.07,8.07,0,0,1-1.12,2.06l-.09.11a7,7,0,0,1-.72.82l-12,12-12-12a8.52,8.52,0,0,1-2.45-6.72,3.75,3.75,0,0,1,0-.47c0-.27.09-.53.15-.8a.94.94,0,0,1,0-.16v-.13l0-.12h0c0-.1.06-.19.08-.28l.05-.13c.06-.18.13-.35.2-.54l.05-.11c0-.05.05-.1.07-.16l.12-.25h0l.06-.11.07-.13.1-.15a.2.2,0,0,1,0-.08v0h0l.06-.09.06-.11.16-.22,0-.09.07-.09.07-.1.1-.12.08-.1,0,0,.06-.07a.48.48,0,0,1,.09-.11l0-.05h0l.07-.07.08-.1.23-.24.1-.09.14-.13a.38.38,0,0,0,.09-.09l.12-.1.08-.06.07-.06.15-.13.08-.06.39-.29.08-.05.09,0,.07-.05.11-.07.06,0,.08-.05.34-.19.06,0,.1-.05.09,0,.09,0,.08,0,.09,0,.08,0,.36-.14.09,0,.09,0,.08,0h.07l.16,0h.22l.12,0,.15,0a4.15,4.15,0,0,1,.48-.11h.44a3.59,3.59,0,0,0,.46-.05h1.29l.38,0h.52l.48.1.2.06h.14l.16,0h.06l.36.12.07,0,.11,0,.16.06.18.08.07,0,.09.05.09,0,.08,0,.11,0,.08.05.2.11.08.05.29.17.08.05.07.05.09,0h0l.05,0,.33.25.08.06.16.12.07.06.07.07.12.09.1.09a1.85,1.85,0,0,0,.14.14l.09.09.09-.09a1.85,1.85,0,0,0,.14-.14l.1-.09.12-.09.07-.07.07-.06.16-.12.08-.06a4,4,0,0,1,.39-.29l.08-.06.08,0,.07-.05.12-.07.05,0,.09-.05.33-.18.07,0,.1-.06.08,0,.09,0,.09,0,.09,0,.08,0,.35-.14.09,0,.09,0,.09,0h.07l.16-.06h.21l.12,0,.16,0,.48-.1h.44c.15,0,.3,0,.46,0h1.29l.37,0h.53l.47.1.2.05h.14l.16,0h.07l.35.12.08,0,.11,0,.15.07.18.08.07,0,.1,0,.08.05.09,0,.1.06.09,0,.2.1.08.05.28.17.08.05.08.05.08.06h0l.05,0a2.62,2.62,0,0,1,.34.24l.08.06.15.13.07.06.08.06.1.09.1.09.05.05h0l.09.09,0,0,.06.05.09.1.14.15.08.08.13.15.14.17c.16.19.3.39.45.6l.05.08s0,.06.06.09l.05.08.09.14.07.13a.43.43,0,0,1,0,.07l0,.06,0,.07,0,.09.05.09c.11.21.21.44.3.66l0,.1a2.31,2.31,0,0,1,.1.28l0,.08a.15.15,0,0,0,0,.12l0,.11v.07a.14.14,0,0,0,0,.1l0,.12a.7.7,0,0,0,.06.19c0,.07,0,.07,0,.11l0,.15v1.18h0v.28h0v.13Z"/><path class="cls-4" d="M213.13,181.44v.14a.08.08,0,0,1,0,.07v.57a.21.21,0,0,1,0,.11l0,.27,0,.17h0v.57h0v.07a.17.17,0,0,1,0,.11l0,.12v0l0,.13c0,.12-.08.25-.12.37s0,.08,0,.12l0,.06a8.35,8.35,0,0,0,.24-2.06,9.12,9.12,0,0,0-.29-2.14,8.48,8.48,0,0,0-2.18-3.81,9.06,9.06,0,0,0-1.45-1.17l-.47-.27a8.52,8.52,0,0,0-8.17,0,8.39,8.39,0,0,0-.81.5,10.8,10.8,0,0,0-1.09.94,7.85,7.85,0,0,0-1-.88h0a8.07,8.07,0,0,0-.88-.55,8.52,8.52,0,0,0-8.17,0,9.11,9.11,0,0,0-1.21.81c-.25.2-.48.41-.71.63a8.78,8.78,0,0,0-.93,1.09,8.35,8.35,0,0,0-.47.74h0c-.13.23-.25.48-.36.73s-.12.27-.17.41a.94.94,0,0,1,0-.16V179l0-.12h0l.09-.28,0-.13c.07-.18.13-.36.21-.55l.05-.1c0-.06,0-.1.07-.16l.12-.25h0l.06-.11.07-.13.09-.16,0-.07v-.05h0l.06-.08.07-.11.15-.23.06-.08.06-.09.08-.1.09-.12a.39.39,0,0,1,.08-.1l0,0,.06-.07.09-.11,0-.05h0l.07-.08.08-.09.23-.24.09-.09.15-.14.09-.08.11-.1.08-.07.08-.06.15-.12.08-.06.39-.29.08-.06.08,0,.08-.05.11-.07.06,0,.08-.05.33-.18.07,0,.1-.05.09,0,.08-.05.09,0,.08,0,.09,0,.35-.14.09,0,.09,0,.09,0h.07l.16,0h.21l.12,0,.15,0,.49-.1h.43c.16,0,.32,0,.47-.05h1.29l.37,0h.53l.48.1.19,0h.14l.16.05h.07l.35.12.08,0,.1,0,.16.06.18.08.07,0,.1,0,.09,0,.08,0,.11,0,.08.05.19.1.09.05.29.18.07.05.08,0,.08.06h0l0,0a4.15,4.15,0,0,1,.34.24l.07.06.16.13.07.06.08.06.11.1.1.09a.86.86,0,0,0,.14.13l.09.1.1-.1.14-.13.1-.09.11-.1.08-.06.07-.06.16-.13.07-.06.39-.29.09-.05.07,0,.08-.05.11-.07.06,0,.08-.05.34-.19.06,0,.11-.06.08,0,.09,0,.08,0,.09,0,.09,0,.35-.14.08,0,.1,0,.08,0h.07l.16-.06h.22l.11,0,.16,0a4.1,4.1,0,0,1,.48-.1h.44c.15,0,.31,0,.47,0h1.29l.37,0h.53l.47.09.2.06h.14l.16,0h.07l.34.12.09,0,.1,0,.16.07.18.07.07,0,.09,0,.09,0,.09,0,.1.06.09,0,.19.1.08.05.29.17.07.05.09.05.08,0h0l.05,0,.33.25.08.06.15.12.08.06.08.07.09.09.1.08.06.06h0l.09.09,0,0,.05.05.09.1.15.14.07.09.13.15.14.17c.16.19.31.39.45.59l.06.09s0,.06.05.09l.05.08.09.14.07.12,0,.08,0,.06,0,.06,0,.1,0,.09c.11.21.21.44.3.66l0,.1.11.27a.29.29,0,0,1,0,.09.13.13,0,0,0,0,.12l0,.1v.08a.11.11,0,0,0,0,.09l0,.12a1.46,1.46,0,0,0,.05.2c0,.07,0,.07,0,.11l0,.15v.14a.09.09,0,0,0,0,.07v.66a.24.24,0,0,0,0,.12.06.06,0,0,0,0,.06v.12h0V181h0v.13Z"/><path class="cls-3" d="M341.7,227.46v.9l0,.27v.18h0v.57h0a.11.11,0,0,0,0,.08v.1l0,.12v0l0,.12-.12.37-.05.12,0,.06a8.43,8.43,0,0,1-1.13,2.06l-.08.11a9.63,9.63,0,0,1-.73.83l-12,12-12-12a9.14,9.14,0,0,1-.94-1.12,7.85,7.85,0,0,1-.49-.78,8.47,8.47,0,0,1-1-4.83,1.75,1.75,0,0,1,.05-.46,5.76,5.76,0,0,1,.15-.81.24.24,0,0,1,0-.16v-.13l0-.12h0a1,1,0,0,1,.09-.28.5.5,0,0,0,0-.13l.21-.54.05-.11a.37.37,0,0,1,.07-.16c0-.06.08-.17.13-.25h0l.05-.12.07-.12c0-.06.06-.11.09-.16l.05-.08v0h0s0-.06.06-.09l.06-.11.16-.22.05-.08.07-.1.07-.1.1-.12.08-.1v0l.06-.07.09-.11,0-.05h0l.07-.08.09-.09.23-.24.09-.09.14-.13.1-.09.11-.1.08-.07.07-.06.16-.13.07-.06.39-.28.09-.05.08-.06.07,0,.12-.07.05,0,.09-.05.33-.18.06,0,.11-.05.08,0,.09,0,.09-.05.08,0,.09,0,.35-.14.09,0,.09,0,.08,0,.07,0,.17-.05h.21l.12,0,.15,0,.49-.11h.43l.47,0H322l.37,0h.53l.47.1.2.05h.14l.16,0H324l.35.12h.08l.1,0,.16.07.18.07.07,0,.1,0,.08,0,.09,0,.1.05.09,0,.19.11.09,0,.28.17.08,0,.08.05.08.06h0l0,0,.33.24.09.06.15.13.07.06.07.06.12.11.1.08.14.14.09.09.09-.09.15-.14.09-.08.12-.11.07-.06.08-.06.15-.13.08-.06.39-.28.08-.06.09-.05.07,0,.11-.07.06,0,.08-.05.33-.19.07,0,.1,0,.09,0,.08,0,.09,0,.09,0,.08,0,.35-.14.09,0,.09,0,.09,0,.07,0,.16,0h.22l.12,0,.15,0,.48-.1h.44l.46,0H334l.37,0h.53l.48.1.2.05h.13l.16,0H336l.35.12h.08l.11,0,.16.06.17.08.08,0,.09,0,.09,0,.08,0,.11.06.08,0,.2.11.08,0,.28.18.08,0,.08.05.08.06h0l.06,0,.33.25.08.06.15.12.08.06.07.07.1.09.1.08.05.06h0s.06.06.1.09l0,0,.05.05.09.1.14.14.08.09.13.15.14.17a6.7,6.7,0,0,1,.45.6s0,.05.05.08l.06.09.05.08.09.14.07.12,0,.08,0,.07,0,.06.05.09.05.09q.17.33.3.66a.3.3,0,0,1,0,.1,2.31,2.31,0,0,1,.1.28l0,.08,0,.12,0,.11V225l0,.12a1.6,1.6,0,0,0,.05.21c0,.06,0,.06,0,.1l0,.15v1.17h0a.08.08,0,0,0,0,.07V227h0v.13Z"/><path class="cls-4" d="M341.7,227.46v.9l0,.27v.18h0v.57h0a.11.11,0,0,0,0,.08v.1l0,.12v0l0,.12-.12.37-.05.12,0,.06a8.32,8.32,0,0,0,.23-2,8.49,8.49,0,0,0-3.94-7.09,4.25,4.25,0,0,0-.46-.27,8.56,8.56,0,0,0-9,.5,8.86,8.86,0,0,0-1.09.94,8.87,8.87,0,0,0-1-.89h0a7.86,7.86,0,0,0-.87-.54,8.52,8.52,0,0,0-8.17,0,8.17,8.17,0,0,0-1.21.8,8.54,8.54,0,0,0-.71.64,8.11,8.11,0,0,0-.93,1.09,7.11,7.11,0,0,0-.47.74h0c-.13.24-.25.49-.36.73s-.12.27-.17.41a.25.25,0,0,1,0-.16v-.13l0-.12h0a1.72,1.72,0,0,1,.08-.28s0-.08.05-.13.13-.35.2-.54l.05-.11s.05-.11.07-.16l.13-.25h0l.05-.12.07-.12c0-.05.06-.11.1-.16a.25.25,0,0,1,0-.07v0h0s0-.06.06-.09l.07-.1.15-.23.05-.08.07-.1.07-.1.1-.12.08-.1v0l.06-.07.09-.11,0,0h0l.08-.08.08-.08a1.75,1.75,0,0,1,.23-.24l.09-.1.15-.13.09-.09.11-.1.08-.07.08-.06.15-.12.07-.06.4-.29.08,0,.08-.06.08-.05.11-.07.06,0,.08-.05.33-.18.06,0,.11,0,.09,0,.08,0,.09-.05.08,0,.09,0,.35-.14.09,0,.09,0,.08,0,.07,0,.17-.05h.21l.12,0,.15,0,.49-.11h.43l.47-.05H322l.37,0h.53a4.15,4.15,0,0,1,.48.11l.19,0h.14l.16.05H324l.35.12h.08l.1,0,.16.07.18.07.07,0,.1,0,.09,0,.08.05.11,0,.08,0,.19.11.09.05.28.17.08.05.08.06.08,0h0l.05,0,.34.24.08.06.15.13.08.06.07.06.11.11.1.08.14.14a.76.76,0,0,1,.09.09l.1-.09.14-.14a.39.39,0,0,1,.1-.08l.11-.11.08-.06.07-.06.16-.13.07-.06.39-.28.09,0,.08-.06.07-.05.11-.07.06,0,.08-.05.34-.19.06,0,.11,0,.08-.05.08,0,.09,0,.09,0,.09,0,.34-.15.09,0,.09,0,.09,0,.07,0,.17-.05h.21l.12,0,.15,0,.48-.1h.44l.46-.05h1.3l.37,0h.52l.48.1.2.05h.14l.15.05H336l.35.12h.09l.1,0,.16.06.18.08.07,0,.1.05.08,0,.08,0,.11.06.09,0,.19.11.08,0,.29.18.07.05.08,0,.09.06h0l.05,0,.33.24.08.06.15.13.08.06.07.06.1.09.1.09a.12.12,0,0,1,.05,0h0s.06.06.1.09l0,0,.05,0,.09.1.14.14.08.09.13.15.14.17a6.7,6.7,0,0,1,.45.6s0,.05.05.08l.06.09.05.08c0,.05.06.1.09.14l.07.12.05.08,0,.07,0,.06,0,.09.05.09a6.42,6.42,0,0,1,.3.66.3.3,0,0,1,0,.1,2.31,2.31,0,0,1,.1.28l0,.08a.56.56,0,0,0,0,.12l0,.11V225l0,.12a.89.89,0,0,0,.06.2.33.33,0,0,1,0,.1l0,.15v1.17h0V227h0v.13Z"/><path class="cls-5" d="M305.68,230h0a63.85,63.85,0,0,0-5.53-5c.23-2.92.78-9.91.83-11.25,0-1.71-2.46-3.89-7.83-5.9s-3.82,7.37-3.74,8.21a6.33,6.33,0,0,0,3.27,4.24c.72.3.92.68.87,1l-.17,0a21.13,21.13,0,0,1-6.41-1.57s-1.64,4.9-1.64,7.25v.37a2.88,2.88,0,0,0,.14,1.27h.37a4,4,0,0,1-.3,1.86h0c-.16.46-.34.9-.54,1.34a36.37,36.37,0,0,1-.26-4c.09-1.3-2-6.62-2-6.62a9,9,0,0,1-2.69-2.44,10.81,10.81,0,0,0-4.5-3.4c-1.24-.43-5.72-6.27-7.57-7.62-1.47-1.09-2.07-.45-2.25-.14l-.1.07a6.43,6.43,0,0,1-1.47-3.13c0-.59.06-1.81.17-3.36a14.63,14.63,0,0,1,1.79,1.64c1.25,1.39,2.17,3,3.54,4.32a5.78,5.78,0,0,0,3.91,1.71,3.42,3.42,0,0,0,1.42-.22c1.82-.7,3-2.92,4.9-3,1.51.08,2.61,1.47,3.84,2.38a5.14,5.14,0,0,0,3.17,1.09,3.35,3.35,0,0,0,1.33-.21,2.85,2.85,0,0,0,1.74-3.64c-1-2.11-4.41-1.63-5.87-3.47a1.46,1.46,0,0,1-.33-1.35,1,1,0,0,1,.88-.65,3.12,3.12,0,0,1,1.82.87c.71.72,1.64,1.64,2.52,1.54a1.18,1.18,0,0,0,.71-.14l.09-1.94a6.84,6.84,0,0,0,3,.86,2.82,2.82,0,0,0,.58,0,2.37,2.37,0,0,0,2.12-2.33,2.65,2.65,0,0,0,1.81.61,2.81,2.81,0,0,0,.87-.11,2.64,2.64,0,0,0,1.77-2.27,5.16,5.16,0,0,0-1.38-3.27L295,188.69a2,2,0,0,1-.55-1.4,2.93,2.93,0,0,1,.61-1.09,3.8,3.8,0,0,0-.74-4.69,6.57,6.57,0,0,0-4.75-1.57c-1.29,0-2.72.24-3.76-.49a4.26,4.26,0,0,1-1.47-2.57c-.76-2.87-.8-5.87-1.33-8.79s-1.67-5.91-4-7.68a3.67,3.67,0,0,0-1.87-.82,12.75,12.75,0,0,0-1.74.14c-2,.11-3.71-1.24-4.94-2.78a44.87,44.87,0,0,0-3.6-4.67,8.79,8.79,0,0,0-8.36-1.93c-1.28.35-2.29,1.39-3.61,1.44a42.86,42.86,0,0,1-6-.54,16.35,16.35,0,0,0-5.45.12,5.79,5.79,0,0,0-3.81,2.82l-.46-3.92s-1-7.41-1.39-8c-.31-.44-.18-1.05,0-1.75l.09.09.21-.6a1.77,1.77,0,0,0,0-.46c.17-1.49-2.54-11-2.54-11h-2.43a1.51,1.51,0,0,0-.06-.35c-.7-3.85-1.9-9.87-2.72-11.32a6.83,6.83,0,0,1-.49-3.66,29.66,29.66,0,0,0,.11-4.32,13.18,13.18,0,0,1,.1-2.08,2.91,2.91,0,0,0-1.16-2.72c-3.19-2.37-10.93-7.75-15.47-7.89-5.8-.17,1.82,10,1.74,11s5.8,1.83,5.8,1.83.35,3,.7,4.62c.24,1.15.65,9.67.87,14.79a16.4,16.4,0,0,1-3.9-1.47s-6.76-1.82-7.37,0,8.23,10.63,8.23,10.63,3.13,8.28,2.18,10.9-.26,15-.26,15,.09,14.71.74,18.47a7.22,7.22,0,0,1-1.17,5.83s-.78,9.24,0,10.11a26.88,26.88,0,0,1,2.13,3.43l.23.41c-2.56,3.13-5.1,6.12-6.44,6.54-2.6.78-20.36,8.17-20.36,8.17S190.83,222,190,222s5.28,5.93,5.28,5.93,5.55,4.44,6.16,5.14,15.8,9,15.8,9,2.6.79,2.86,1.57,3.72,3,3.72,3a22.67,22.67,0,0,1,3.36,5,1.11,1.11,0,0,0,0,.38c0,.54.07.8.1.66.46,1.28,3.59,4.53,2.08,6.85-.7,1.09,0,3,1.35,4.63-.37,1.95-.87,4.17-1.42,4.9-1,1.4-.58,3.37-1.63,3.6s-1.39,5.35-1.39,5.35l-.9,11.26s-.24,2.32-1.5,2.9,0,3.72,0,3.72-1.37,2.67-.55,4.18-1.63,8.48-1.63,8.48-1,13.47,0,15.33a15.3,15.3,0,0,1,1.63,5.92c0,1.16.58,22.88.58,22.88s-1.39,8.83-1.85,10.45,1.27,5.23.12,7.08-.93,6-.93,6-1.73,16.38-.69,22.42-.33,7.32-.33,7.32a12.82,12.82,0,0,0,2.24,1c0,.23,0,.47.08.72.55,5.07,1.35,13.8.62,15.8s-.94,5.79-1,7.93v.36h0l-2,3.27s-.41,2.88-.93,3.34-4.86,8.35-5.45,9.36l-.06.11s-4.39,8.07,6.48,8.3,9.47-5.34,9.47-5.34,0-1.09.14-2.42c.13-1.64.37-3.62.79-4.14a58.68,58.68,0,0,0,2.94-5.29v-6.39h-.69a1.42,1.42,0,0,1,0-.35,25.14,25.14,0,0,1,.61-3.95c.34-.81-.75-5.69-.75-5.69A128.6,128.6,0,0,1,234,407.23l.15-.77a17.21,17.21,0,0,0,2.33-1.22s0-11.84,1.39-13.93,1.1-8,1.1-8,.34-5.22,1.38-6.27.8-5.69.8-5.69.92-3,2-5.45,1.63-9.29,1.63-9.29a12.11,12.11,0,0,1,1.64-3.37c1.16-1.63,0-5.22,0-5.22a6.37,6.37,0,0,1-.46-4.65c.81-2.33,5.31-21.14,5.31-21.14l1.74-6.73,2.54,8.59s-.34,6.15,0,7.9,2.77,5.45,2.77,5.45v18.23s.24,12.31,1.16,14.29,1.39,9.29,1.39,9.29S264,400.72,262,403.85a19.79,19.79,0,0,0,3.19,1.75v12.65s-2.26,7.66-1.49,12.88a1.81,1.81,0,0,0,.05.31c-.21.15-.44.28-.58.23l.37,8.71s.1,4.84-.83,7.39a10.4,10.4,0,0,0-.55,2.76c-.2,3.45,1.13,8.17,8.72,7.68,10.11-.64,8.55-7.08,8.55-7.08s0-.25,0-.69a26.18,26.18,0,0,0-2.5-9.47c-2.43-4.76-2.08-10.69-2.08-10.69a4.37,4.37,0,0,1-.62.17,1.46,1.46,0,0,1,0-.36,46.1,46.1,0,0,1,.55-4.74,31.48,31.48,0,0,0,0-5.81l1.3-12.72.07-.7a11.26,11.26,0,0,0,1.79-1.09h0a13,13,0,0,1-.67-3.55,3.15,3.15,0,0,1,.67-2.23c1.5-1.51,2.54-20.45,2.54-20.45s.82-6.66.82-8.91v-.4c-.09-1.36-.81-6.67-.8-9.77a6.36,6.36,0,0,1,.22-1.94c.7-1.74,1.64-34.5,1.64-34.5l1.15-14.51V296.85a70.05,70.05,0,0,0-2.06-16.93c3.15,1.64,8.55,5.35,9.53,4.36,1.22-1.22,1.82-22.13,1.47-24.21a2,2,0,0,0-.08-.43c-.08-.38-.2-.89-.35-1.49l.48-.83c2.37-4.1,6-10.62,6.29-12.53.32-2.18.75-7.84,1.57-10.32a4.12,4.12,0,0,1,.23-.58h0c.22-.43.45-.67.71-.6,1.47.35,2.43,1.48,3.21,1l.1-.08h0a1.79,1.79,0,0,0,.2-.28h0a2,2,0,0,0,.17-.4h0a4.29,4.29,0,0,0,.16-.47v0a1.6,1.6,0,0,1,.05-.21v-.07a.61.61,0,0,1,.05-.18l0-.14v-.07c.13-.62.24-1.25.3-1.7a1.89,1.89,0,0,1,.06-.4v-.22Z"/><path class="cls-6" d="M227.26,253.33a1.83,1.83,0,0,0-.12-1C227.18,253.14,227.23,253.5,227.26,253.33Z"/><path class="cls-7" d="M292.62,223.74s2.06-1.41.05-2.24a6.3,6.3,0,0,1-3.27-4.21c-.08-.84-1.64-10.17,3.74-8.17S301,213.28,301,215s-.93,12.47-.93,12.47Z"/><path class="cls-8" d="M305.68,231.14a3.25,3.25,0,0,1-.08.62c-.16,1.09-.54,3.34-1.13,3.66-.78.43-1.73-.69-3.21-1-.26-.06-.49.17-.7.6a5.72,5.72,0,0,0-.24.57c-.81,2.48-1.25,8.11-1.57,10.28-.3,1.91-3.91,8.4-6.28,12.48-.36.62-.69,1.18-1,1.64l-1.09,1.8-6-11.23V234a13.83,13.83,0,0,0,1.09-2.3h0a3.91,3.91,0,0,0,.3-1.85.93.93,0,0,0-.25-.54.66.66,0,0,1-.12-.17.78.78,0,0,1-.05-.14,2,2,0,0,1-.08-.43v-.36c0-2.34,1.64-7.22,1.64-7.22a20.26,20.26,0,0,0,6.41,1.56C297.77,223,305.68,231.14,305.68,231.14Z"/><path class="cls-4" d="M305.6,231.76c-.16,1.09-.54,3.34-1.13,3.66-.78.43-1.73-.69-3.21-1-.26-.06-.49.17-.7.6a5.72,5.72,0,0,0-.24.57c-3-1.44-8.17-4.07-8.5-4.81s-3.95-.91-6-.94h-.38a2.85,2.85,0,0,1-.13-1.26,38.27,38.27,0,0,1,1.64-6.89,20.26,20.26,0,0,0,6.41,1.56C297.54,223.69,304.77,230.92,305.6,231.76Z"/><path class="cls-8" d="M305.68,231.15s-.43,3.84-1.21,4.27-1.73-.69-3.21-1c-.26-.06-.49.17-.7.6-2.94-1.43-8.42-4.18-8.72-4.93s-4.42-.93-6.36-1c-.72-1.49,1.5-8.17,1.5-8.17a20.39,20.39,0,0,0,6.41,1.57C297.81,223,305.68,231.15,305.68,231.15Z"/><path class="cls-8" d="M291,285.14c-1.22,1.21-9.11-4.68-11.27-5s-10-33.28-10-33.28l1.18-18.55-4.61-17.08-.6-2.23s.46-1.36,2.31,0,6.35,7.17,7.57,7.6A10.89,10.89,0,0,1,280,220a9.09,9.09,0,0,0,2.69,2.42s2.08,5.29,2,6.59.7,10.14,1.64,10.92,2.51,7.89,2.51,7.89,2.86,10,3.47,12.84a2.76,2.76,0,0,1,.08.42C292.77,263.12,292.16,283.92,291,285.14Z"/><path class="cls-4" d="M277.42,243.82l5.72,1.53s1.09,9.88,1.5,10.41,1.8,20.8,1.8,20.8l-9-4.08L274,261.59V249.53Z"/><path class="cls-7" d="M234.78,404.24a19.24,19.24,0,0,0-.83,3.26,125.42,125.42,0,0,0-1.31,15.26s1.09,4.85.75,5.66a23.77,23.77,0,0,0-.6,3.93c-.09.85-.15,1.5-.15,1.5l-10.58-.69s0-.63,0-1.59c.08-2.13.3-5.89,1-7.88s-.06-10.7-.61-15.75c-.24-2.18-.43-3.67-.43-3.67S236.56,399.59,234.78,404.24Z"/><path class="cls-7" d="M276.07,407.08l-1.3,12.66a31.06,31.06,0,0,1,0,5.77c-.2,1-.4,3.09-.55,4.72-.1,1.24-.16,2.22-.16,2.22s-8.09,5.66-9.94.69a9.29,9.29,0,0,1-.46-1.87c-.77-5.19,1.5-12.81,1.5-12.81V402.18L276.37,404Z"/><path class="cls-4" d="M234.78,404.24a19.24,19.24,0,0,0-.83,3.26,16.12,16.12,0,0,1-11.44.43c-.23-2.17-.42-3.67-.42-3.67S236.56,399.59,234.78,404.24Z"/><path class="cls-4" d="M276.38,404l-.31,3.07c-3.92,1.8-8.11.7-10.9-.55v-4.35Z"/><path class="cls-9" d="M231.24,261.73s-.92,6.82-2,8.21-.58,3.35-1.64,3.58-1.39,5.32-1.39,5.32l-.88,11.21s-.24,2.31-1.5,2.89,0,3.7,0,3.7-1.37,2.66-.55,4.16-1.63,8.43-1.63,8.43-1,13.41,0,15.26a15.16,15.16,0,0,1,1.63,5.89c0,1.16.58,22.77.58,22.77s-1.39,8.79-1.85,10.41,1.27,5.19.12,7.05-.93,6-.93,6-1.79,16.31-.75,22.31-.33,7.28-.33,7.28a16.19,16.19,0,0,0,16.28-.7s0-11.79,1.39-13.87,1.16-8,1.16-8,.34-5.2,1.38-6.24.8-5.65.8-5.65.92-3,2-5.45,1.63-9.26,1.63-9.26a11.78,11.78,0,0,1,1.64-3.36c1.16-1.63,0-5.19,0-5.19a6.33,6.33,0,0,1-.46-4.63c.81-2.31,5.31-21,5.31-21l1.74-6.7,2.54,8.55s-.34,6.12,0,7.86S258.3,338,258.3,338v18.15s.24,12.25,1.16,14.21,1.39,9.27,1.39,9.27S264,401,262,404.13c0,0,8.9,6.35,15.95,1.16,0,0-1.5-4.28,0-5.78s2.54-20.35,2.54-20.35.93-7.51.81-9.26-1.27-9.93-.57-11.67,1.63-34.32,1.63-34.32l1.16-14.44V297.65a69.64,69.64,0,0,0-2.62-18.93c-2-6.89-4.66-14.8-6.94-15.29C273.92,263.43,238.06,267.4,231.24,261.73Z"/><path class="cls-4" d="M232.79,432.32c-.09.85-.15,1.5-.15,1.5l-10.58-.69s0-.63,0-1.59c5-4.4,9.91.78,9.91.78Z"/><path class="cls-9" d="M233.45,432.69v6.41a51.35,51.35,0,0,1-2.95,5.26c-.42.51-.66,2.48-.79,4.12-.1,1.31-.14,2.41-.14,2.41s1.39,5.55-9.47,5.31-6.47-8.26-6.47-8.26l.06-.1c.54-1,4.94-8.88,5.45-9.32s.92-3.33.92-3.33l2-3.27c5-4.44,9.95.75,9.95.75Z"/><path class="cls-4" d="M229.57,450.86s1.39,5.56-9.47,5.32-6.47-8.24-6.47-8.24l.06-.1c.3,1.63,1.58,3.32,5.66,3.11a25,25,0,0,0,10.35-2.47C229.61,449.76,229.57,450.86,229.57,450.86Z"/><path class="cls-4" d="M274.24,430.22c-.1,1.24-.17,2.21-.17,2.21s-8.09,5.67-9.93.7a8.66,8.66,0,0,1-.46-1.87,5.58,5.58,0,0,0,.46-.39c1.32-2,8.37-2,8.71-1.09C273.07,430.32,273.74,430.32,274.24,430.22Z"/><path class="cls-9" d="M270.9,458.21c-7.63.48-8.94-4.21-8.72-7.63a10.33,10.33,0,0,1,.55-2.75c.92-2.53.82-7.35.82-7.35l-.36-8.67c.29.12,1-.57,1-.57,1.33-2,8.38-2,8.72-1.09s2,.3,2,.3a23.57,23.57,0,0,0,2.07,10.62,26.25,26.25,0,0,1,2.51,9.43c0,.44,0,.69,0,.69S281,457.57,270.9,458.21Z"/><path class="cls-4" d="M270.9,458.21c-7.63.48-8.94-4.21-8.72-7.63,0,0,2,3.36,9,2.56a19.81,19.81,0,0,0,8.23-2.66c0,.44,0,.69,0,.69S281,457.57,270.9,458.21Z"/><g class="cls-10"><path d="M278.76,271.93c-1.56-4.47-3.27-8.17-4.82-8.48l-1.38.14c1.44.77,3,4.22,4.47,8.34a86.72,86.72,0,0,1,4.74,28.46v9.1l-1.16,14.45s-.92,32.59-1.63,34.32.46,9.94.57,11.68-.81,9.26-.81,9.26-1,18.84-2.54,20.33,0,5.78,0,5.78a10.22,10.22,0,0,1-5.44,2,10.51,10.51,0,0,0,7.19-2s-1.5-4.27,0-5.78,2.54-20.33,2.54-20.33.93-7.52.81-9.26-1.27-9.95-.57-11.68,1.63-34.32,1.63-34.32l1.16-14.45v-9.1A86.43,86.43,0,0,0,278.76,271.93Z"/></g><g class="cls-10"><path d="M222.28,406.2s1.37-1.27.33-7.28.69-22.31.69-22.31-.22-4.16.93-6-.58-5.45-.12-7.05,1.85-10.4,1.85-10.4-.59-21.63-.59-22.79a15.17,15.17,0,0,0-1.64-5.89c-1-1.85,0-15.25,0-15.25s2.43-6.94,1.64-8.43.54-4.17.54-4.17-1.27-3.12,0-3.7,1.51-2.88,1.51-2.88l.92-11.22s.35-5.08,1.39-5.31.57-2.18,1.63-3.58c.78-1,1.5-5.14,1.8-7.13a7.11,7.11,0,0,1-1.91-1.09s-.93,6.82-2,8.21-.58,3.35-1.63,3.58-1.39,5.31-1.39,5.31l-.89,11.22s-.24,2.31-1.5,2.89,0,3.7,0,3.7-1.37,2.66-.55,4.16-1.63,8.43-1.63,8.43-1,13.41,0,15.26a15.11,15.11,0,0,1,1.63,5.89c0,1.16.58,22.76.58,22.76s-1.39,8.79-1.85,10.41,1.27,5.2.12,7.05-.93,6-.93,6-1.75,16.32-.71,22.32-.33,7.28-.33,7.28a16,16,0,0,0,8.57,1.83A15.56,15.56,0,0,1,222.28,406.2Z"/></g><path class="cls-9" d="M266.84,153.81c1.44,1.34,2.37,3.12,3.61,4.65s3,2.87,4.94,2.77a12.63,12.63,0,0,1,1.73-.15,3.68,3.68,0,0,1,1.87.82c2.37,1.76,3.51,4.74,4,7.63s.55,5.89,1.33,8.74a4.38,4.38,0,0,0,1.48,2.56c1.06.73,2.47.51,3.76.48a6.68,6.68,0,0,1,4.75,1.57,3.78,3.78,0,0,1,.74,4.67,2.84,2.84,0,0,0-.61,1A1.92,1.92,0,0,0,295,190l3.56,4.85a5.21,5.21,0,0,1,1.38,3.27,2.56,2.56,0,0,1-4.51,1.47c.38,1.2-.8,2.45-2.06,2.61a6.55,6.55,0,0,1-3.61-.95l-.09,2.06c-1.05.54-2.15-.55-3-1.4s-2.55-1.34-2.94-.23a1.47,1.47,0,0,0,.33,1.36c1.46,1.81,4.87,1.35,5.87,3.45a2.82,2.82,0,0,1-1.74,3.62,4.76,4.76,0,0,1-4.26-.87c-1.21-.87-2.4-2.39-4-2.38-2,0-3.16,2.29-5,3s-3.73-.2-5.09-1.47-2.29-2.93-3.55-4.31c-3.22-3.56-8.11-5-12.66-6.49s-9.38-3.59-11.73-7.78a32.25,32.25,0,0,0-2.07-3.9c-1.54-2-4.12-2.94-5.81-4.82a7.45,7.45,0,0,1-1.13-8,25.91,25.91,0,0,1,3.31-4.48,15.05,15.05,0,0,0,3-8.84,11.21,11.21,0,0,1,.26-3.57,5.59,5.59,0,0,1,4-3.33,16.59,16.59,0,0,1,5.45-.12,50,50,0,0,0,6,.54c1.32-.06,2.33-1.09,3.61-1.43A8.81,8.81,0,0,1,266.84,153.81Z"/><g class="cls-10"><path d="M282.09,168.16c.54,2.9.54,5.89,1.33,8.74a5.45,5.45,0,0,0,.87,2c-.07-.19-.13-.39-.18-.58-.75-2.85-.8-5.84-1.32-8.75a16,16,0,0,0-1.75-5A17.64,17.64,0,0,1,282.09,168.16Z"/><path d="M294.15,186.17a3,3,0,0,0-.62,1.09,2,2,0,0,0,.55,1.4l.14.19a.67.67,0,0,1,0-.2,2.91,2.91,0,0,1,.62-1.06,3.69,3.69,0,0,0-.34-4.21A3.34,3.34,0,0,1,294.15,186.17Z"/><path d="M289.21,205.8a3,3,0,0,1-1.93,2.94,4.76,4.76,0,0,1-4.26-.88c-1.22-.87-2.4-2.38-4-2.37-2,0-3.16,2.29-5,3s-3.72-.2-5.08-1.47-2.3-2.93-3.54-4.31c-3.23-3.55-8.12-5-12.68-6.49s-9.35-3.58-11.7-7.75c.21.47.43.92.67,1.36,2.35,4.19,7.17,6.26,11.73,7.78s9.44,2.93,12.67,6.49c1.25,1.38,2.18,3,3.54,4.31s3.35,2.14,5.09,1.47,3-3,5-3c1.58,0,2.72,1.44,4,2.38a4.57,4.57,0,0,0,4.25.87,2.84,2.84,0,0,0,1.75-3.62A2.52,2.52,0,0,0,289.21,205.8Z"/><path d="M298.87,195.63a3,3,0,0,1,.15,1.11,2.57,2.57,0,0,1-4.52,1.47c.39,1.2-.8,2.45-2.05,2.62a6.55,6.55,0,0,1-3.61-1l-.09,2.05c-1.05.54-2.18-.54-3-1.39s-2.55-1.35-3-.23a1.47,1.47,0,0,0,.34,1.35,3,3,0,0,0,.3.32.87.87,0,0,1,.05-.28c.41-1.09,2.12-.61,3,.22s1.93,2,3,1.4c0-.69.06-1.37.09-2a6.9,6.9,0,0,0,3.62.94c1.25-.14,2.44-1.41,2.05-2.61a2.56,2.56,0,0,0,4.51-1.47A4.05,4.05,0,0,0,298.87,195.63Z"/><path d="M238.92,184.53c-1.53-2-4.12-2.94-5.79-4.82a5.82,5.82,0,0,1-.64-.84,7,7,0,0,0,1.33,2.23c1.68,1.88,4.26,2.81,5.8,4.82a7.55,7.55,0,0,1,.58.89A11.89,11.89,0,0,0,238.92,184.53Z"/></g><path class="cls-7" d="M249.23,183.38s1.27,14.1-4.52,18.37,12.37,15.95,12.37,15.95l13.76-3s-6.71-6.23-6.71-8.89,1.16-17.57,3-19.3S249.23,183.38,249.23,183.38Z"/><path class="cls-8" d="M245.21,183.38l-3.15,6.87s-4.68,2.78-5,3-4.07,4.51-4.07,4.51l-9.19,5.9-.55-1a27.81,27.81,0,0,0-2.13-3.41c-.78-.87,0-10.06,0-10.06a7.19,7.19,0,0,0,1.17-5.8c-.65-3.73-.74-18.38-.74-18.38s-.69-12.31.26-14.91-2.18-10.84-2.18-10.84-8.83-8.78-8.23-10.59,7.37,0,7.37,0a15.11,15.11,0,0,0,4.07,1.47c.84.05,5.33.07,8.76.08h4.07s2.86,10,2.52,11q-.1.31-.21.6c-.27.8-.49,1.52-.14,2s1.39,8,1.39,8l1,8a67.83,67.83,0,0,1,1.39,7.1c-.09.88-2.26,2.69-1.3,4.34s1.3,6.67,1.3,6.67,1.59,3.69,3.17,5.09A2.64,2.64,0,0,0,245.21,183.38Z"/><circle class="cls-4" cx="259.83" cy="176.11" r="16.64"/><circle class="cls-7" cx="259.83" cy="175.42" r="16.64"/><path class="cls-11" d="M277.42,243.82c-1.5,1.63-1.84,17.43-.95,18.84s-4.48,4.16-7.6,4-11.66,2.55-11.66,2.55-17.12-4.63-20.71-2.31-8.66-4.17-7.16-6.48-1.63-5.54-2.08-6.81a10.05,10.05,0,0,1-.19-1.64h0c-.42-5.82-.85-24.46-.85-24.46v-21.4l15.72-11.1a75.58,75.58,0,0,1,7.3,4.22,34.59,34.59,0,0,1,4.71,3.64c4.29,4,14.92,8.32,14.92,8.32s11.67,14,13.17,15.37S278.92,242.2,277.42,243.82Z"/><path class="cls-4" d="M226.22,227.52v-18.4s.48,33.52.86,42.87C226.66,246.17,226.22,227.52,226.22,227.52Z"/><path class="cls-4" d="M227.14,253.37a1.79,1.79,0,0,1,.12,1C227.23,254.5,227.18,254.14,227.14,253.37Z"/><path class="cls-4" d="M249.34,205.22a14.2,14.2,0,0,0-2.51,3.55c-.87,1.91-20.61.35-20.61.35v-3L242,195.05a75.42,75.42,0,0,1,7.29,4.22C249.34,202.53,249.34,205.22,249.34,205.22Z"/><path class="cls-4" d="M227.14,252a1.79,1.79,0,0,1,.12,1C227.23,253.12,227.18,252.76,227.14,252Z"/><path class="cls-4" d="M245.21,183.38l-3.15,6.87s-4.68,2.78-5,3-4.07,4.51-4.07,4.51l-9.19,5.9-.55-1c2.5-3,5.06-6.27,6.54-7.4,3-2.25-.09-2.51,0-2.95s6.5-2.77,8.24-4.42a74.06,74.06,0,0,1,6.72-4.9A3,3,0,0,0,245.21,183.38Z"/><path class="cls-8" d="M245.21,183.38a77.35,77.35,0,0,0-7.22,5.2c-1.74,1.64-8.18,4-8.24,4.42s2.95.69,0,2.95S219.61,208.77,217,209.57s-20.37,8.17-20.37,8.17-5.81,5.45-6.67,5.45,5.28,5.89,5.28,5.89,5.55,4.43,6.16,5.12,15.79,8.89,15.79,8.89,2.6.78,2.86,1.56,3.72,2.95,3.72,2.95,3.88,4.45,3.5,6-1-45.22-1-45.22,19.74,1.56,20.6-.35a13.88,13.88,0,0,1,2.52-3.55s-.06-16-1.16-17.22S245.23,184.85,245.21,183.38Z"/><path class="cls-4" d="M199.33,221.43s5.19,5.63,7.62,6.58a6.57,6.57,0,0,1,3.38,3.48,19.76,19.76,0,0,0,4.43,1.9c1.56.27,3.9,2.6,3.9,2.6s5.8,1.64,5.8,2.86,2.35,2.87,2.35,2.87l-.59-33.29s-9.64,1.21-12.42,5.28S199.33,221.43,199.33,221.43Z"/><path class="cls-4" d="M210.66,224.57c.44-.26,12.27-15.5,12.27-15.5l2.18-.45s-5.62,8.41-5.53,9.1S210.66,224.57,210.66,224.57Z"/><path class="cls-4" d="M215.62,229.58s3.12-7.2,4-8.41,5.53-9.36,5.53-9.36a5.6,5.6,0,0,1,0,2.08C224.89,214.67,215.62,229.58,215.62,229.58Z"/><path class="cls-4" d="M236.51,175.92s-6.94,12.66-6.33,13.27S236.51,175.92,236.51,175.92Z"/><path class="cls-4" d="M238.94,181s-5.72,8.36-5.2,8.25S238.94,181,238.94,181Z"/><path class="cls-7" d="M233.74,133.19l-10.93.78s0-.35,0-1c-.16-3.61-.71-16.18-1-17.59-.35-1.63-.7-4.59-.7-4.59s-5.89-.87-5.81-1.82-7.54-11.1-1.73-10.9c4.53.14,12.28,5.49,15.47,7.84a2.94,2.94,0,0,1,1.16,2.69,11,11,0,0,0-.1,2.07A29.38,29.38,0,0,1,230,115a6.52,6.52,0,0,0,.49,3.65c.8,1.44,2,7.43,2.72,11.26C233.51,131.81,233.74,133.19,233.74,133.19Z"/><path class="cls-4" d="M238.16,141.6l-.21.59c-2.37-2.35-17.21-3.84-17.21-3.84-1.3-1.52-.14-2.18,1.25-4,.81-1.08,5.68-2.63,9.58-3.73h4.07S238.5,140.56,238.16,141.6Z"/><path class="cls-4" d="M233.74,133.19l-10.93.78s0-.35,0-1a47.16,47.16,0,0,1,8.79-3.12h1.58C233.51,131.81,233.74,133.19,233.74,133.19Z"/><path class="cls-8" d="M238.16,141.25l-.21.6c-2.37-2.35-17.21-3.85-17.21-3.85-1.3-1.52-.14-2.18,1.25-4,.81-1.09,5.68-2.64,9.58-3.74h4.07S238.5,140.21,238.16,141.25Z"/><path class="cls-4" d="M247.61,227.06s-1.22,23.32,0,24.45S247.61,227.06,247.61,227.06Z"/><path class="cls-4" d="M256.19,236.86s-.44,25.66,0,25.91S256.19,236.86,256.19,236.86Z"/><path class="cls-4" d="M266.23,239.89s1.63,17.69,3.12,18.38S266.23,239.89,266.23,239.89Z"/><path class="cls-4" d="M292,261a3.48,3.48,0,0,1-1.39-.54c-1.47-.95-3.12-11.19-5.29-12.57s-10-15-10-15a70.5,70.5,0,0,0-4.25-6.85c-1.21-1.4-.6-7.62-.6-7.62a34,34,0,0,1-4.6-6.85,6.21,6.21,0,0,1-.6-2.23s.46-1.37,2.31,0,6.35,7.17,7.57,7.6a10.92,10.92,0,0,1,4.51,3.38,9.23,9.23,0,0,0,2.69,2.43s2.08,5.29,2,6.59.69,10.14,1.63,10.92,2.52,7.89,2.52,7.89S291.38,258.12,292,261Z"/><path class="cls-4" d="M285.32,228.53v-.36a2.93,2.93,0,0,1,.1.78A2.13,2.13,0,0,1,285.32,228.53Z"/><path class="cls-4" d="M292.47,258.31c-.36.62-.69,1.18-1,1.64-1.44-1.48-3.05-11.11-5.15-12.45a9.92,9.92,0,0,1-1.9-2.14V233.92a15.11,15.11,0,0,0,1.09-2.3c.25,3.1.84,7.68,1.52,8.24.95.78,2.51,7.89,2.51,7.89S291.43,254.31,292.47,258.31Z"/><path class="cls-8" d="M292.34,260.62a3.44,3.44,0,0,1-1.39-.55c-1.48-.95-3.13-11.18-5.29-12.57s-10-15-10-15a70.5,70.5,0,0,0-4.25-6.85c-1.21-1.4-.6-7.63-.6-7.63a34.13,34.13,0,0,1-4.6-6.84,6.21,6.21,0,0,1-.6-2.24s.46-1.36,2.31,0,6.35,7.17,7.57,7.6a10.89,10.89,0,0,1,4.5,3.39,9.29,9.29,0,0,0,2.69,2.43s2.08,5.29,2,6.58.7,10.15,1.64,10.93,2.51,7.88,2.51,7.88S291.73,257.77,292.34,260.62Z"/><circle class="cls-9" cx="274.65" cy="227.07" r="1.17"/><circle class="cls-9" cx="282.34" cy="237.6" r="1.17"/><path class="cls-4" d="M291.29,234.49s-5.64-2.57-4.77-1.19S291.29,234.49,291.29,234.49Z"/><path class="cls-4" d="M291.29,238.25s-5.73-1.56-4.51-.65S291.29,238.25,291.29,238.25Z"/><path class="cls-4" d="M290.34,242.36s-3.9-2.82-2.95-1.78A9.24,9.24,0,0,0,290.34,242.36Z"/><path class="cls-4" d="M294.41,245.35s-4,7.82-2.07,8.34S294.41,245.35,294.41,245.35Z"/><path class="cls-4" d="M237.78,373.72s-9.13,8.67-6.47,8.55S237.78,373.72,237.78,373.72Z"/><path class="cls-4" d="M225,385.75c.47,0,9.71-.93,7.28-1.39S225,385.75,225,385.75Z"/><path class="cls-4" d="M269.91,372.34s9.81.34,9.6,1.38S269.91,372.34,269.91,372.34Z"/><path class="cls-4" d="M268.29,376.27s5.66,4.27,6.94,2.88S268.29,376.27,268.29,376.27Z"/><path class="cls-7" d="M241.17,315a2.82,2.82,0,0,1-.36.88,1,1,0,0,1-.25.26c-1.16.8-4.16,2.31-4.63,2.18-.21-.06-1-.31-2-.55-1.06-.31-2.24-.64-2.68-.7s-.7-.76-.76-1.45,0-1.22.29-1.32a.68.68,0,0,0,.24-.36c.06-.16.11-.32.16-.49l0-.16a20.73,20.73,0,0,0,.36-2.09c.05-.36.09-.67.11-.89v-.25h0v0l.77,0h.72a44.32,44.32,0,0,1,6.61.07,1.86,1.86,0,0,1,1.2,1.38,6.39,6.39,0,0,1,.28,1.56A7.52,7.52,0,0,1,241.17,315Z"/><path class="cls-7" d="M280.75,319v.12c0,1.18-.08,2.07-.08,2.22,0,.46-12,3.7-15,3.47-2-.16-.51-1.51.59-2.9a4.52,4.52,0,0,0,.87-1.48,1,1,0,0,0,0-.59q-.09-.33-.15-.6h0c-.28-1.24-.14-1.63.15-1.94a2.31,2.31,0,0,0,.4-.74,2.94,2.94,0,0,0,.17-.78,2.37,2.37,0,0,0-.44-1.67c-.93-1.23,3.47-1.89,3.47-1.89h8.35c.82,0,1.25,1.16,1.47,2.65V315c.06.43.11.9.14,1.37s.05.89.05,1.33S280.75,318.59,280.75,319Z"/><path class="cls-7" d="M244.25,354s-9.26,2.18-8.32,1.64c.36-.23.44-1,.41-1.83,0-.42-.06-.84-.11-1.26-.12-1-.3-1.77-.3-1.77s4.86-1,6.59-.58a2.09,2.09,0,0,1,1.3,1.4,1.07,1.07,0,0,1,.07.19A7.57,7.57,0,0,1,244.25,354Z"/><path class="cls-4" d="M251.28,170.81a38.77,38.77,0,0,0,3.61-1.76,5,5,0,0,1,3.88-.38,6.23,6.23,0,0,1,1.69,1.19c1.09,1,2.18,1.93,3.21,3a18.94,18.94,0,0,0,3.34,3c2.86,1.75,6.49,1.36,9.8.83a6,6,0,0,0,1.94-.54,4,4,0,0,0,1.67-4.33,9.66,9.66,0,0,0-2.49-4.25,34.8,34.8,0,0,0-11.37-8.41c-4.59-2.11-10-3.16-14.62-1a15.81,15.81,0,0,0-3.81,2.61c-1.6,1.41-5.71,5-4.8,7.45C244.33,170.86,248.91,171.61,251.28,170.81Z"/><path class="cls-9" d="M251.28,170.46a36.42,36.42,0,0,0,3.61-1.76,5,5,0,0,1,3.88-.38,6.46,6.46,0,0,1,1.69,1.19c1.09,1,2.18,1.93,3.21,3a18.18,18.18,0,0,0,3.34,3c2.86,1.75,6.49,1.36,9.8.84a5.92,5.92,0,0,0,1.94-.55,4,4,0,0,0,1.67-4.33,9.57,9.57,0,0,0-2.49-4.24,34.66,34.66,0,0,0-11.37-8.41c-4.59-2.11-10-3.16-14.62-1a15.81,15.81,0,0,0-3.81,2.61c-1.6,1.41-5.71,5-4.8,7.46C244.33,170.52,248.91,171.26,251.28,170.46Z"/><path class="cls-4" d="M278.76,175a5.93,5.93,0,0,1-1.93.55c-3.31.54-6.94.91-9.81-.84a18.73,18.73,0,0,1-3.35-3c-1-1-2.12-2-3.21-3a6.26,6.26,0,0,0-1.69-1.2,5,5,0,0,0-3.89.39,38.6,38.6,0,0,1-3.6,1.76c-2.37.79-6.95,0-8-2.68a2,2,0,0,1-.1-.41,2.25,2.25,0,0,0,.1,1.09c1,2.72,5.6,3.47,8,2.68a39.92,39.92,0,0,0,3.6-1.76,4.93,4.93,0,0,1,3.89-.38,6,6,0,0,1,1.69,1.19c1.09,1,2.18,1.93,3.21,3a18.94,18.94,0,0,0,3.34,3c2.86,1.75,6.49,1.35,9.8.83a6.1,6.1,0,0,0,1.93-.54,3.87,3.87,0,0,0,1.76-3.74A3.65,3.65,0,0,1,278.76,175Z"/><path class="cls-4" d="M231.83,310.38a23.55,23.55,0,0,1-.6,3.1,27.84,27.84,0,0,0,.54-3.14Z"/><path class="cls-4" d="M240.56,316.17c-1.16.81-4.16,2.31-4.63,2.18s-3.81-1.16-4.63-1.27-1-2.55-.47-2.77a.68.68,0,0,0,.24-.36,4.78,4.78,0,0,1-.19.48,2.41,2.41,0,0,0,.54,2.55l4.81,1.24,4.52-2.48c1.09-1.49-.13-4.95-.75-5.51s-8,0-8,0l-.17-.16h0v0l.76,0h.73a44.32,44.32,0,0,1,6.61.07C241.71,310.39,241.71,315.36,240.56,316.17Z"/><path class="cls-4" d="M279.08,312.24h-8.36s-4.39.66-3.47,1.89a2.79,2.79,0,0,1-.12,3.19c-.33.35-.48.82,0,2.55s-4.49,4.74-1.49,5,15-3,15-3.47S281.31,312.24,279.08,312.24Zm1.12,9c0,.43-11.32,3.48-14.16,3.27s1.85-3.05,1.4-4.68-.32-2.07,0-2.4a2.64,2.64,0,0,0,.12-3c-.87-1.16,3.27-1.78,3.27-1.78h7.87C280.81,312.6,280.2,320.77,280.2,321.21Z"/><path class="cls-4" d="M242.52,350.15c-1.73-.47-6.59.58-6.59.58s.93,4.27,0,4.85,8.33-1.63,8.33-1.63S244.26,350.61,242.52,350.15Zm-6.45,5.34c.9-.55,0-4.69,0-4.69s4.69-1,6.37-.55,1.67,3.68,1.67,3.68-8.93,2.11-8,1.56Z"/><path class="cls-4" d="M280.74,317.64,267,319.27h0l13.71-2.95C280.72,316.75,280.74,317.19,280.74,317.64Z"/><polygon class="cls-9" points="266.85 318.95 281.15 315.87 281.46 317.21 266.85 318.95"/><path class="cls-4" d="M280.75,319v.12l-14.52,2.79a4.52,4.52,0,0,0,.87-1.48Z"/><polygon class="cls-9" points="264.67 320.38 282.1 318.54 265.13 321.81 264.67 320.38"/><path class="cls-4" d="M280.55,314.89l-12.86.91a2.92,2.92,0,0,1-.16.78l13-1.64Z"/><polygon class="cls-9" points="266.85 315.52 281.46 314.48 266.63 316.34 266.85 315.52"/><path class="cls-4" d="M241.34,313l-10.07.32a20.25,20.25,0,0,0,.36-2.09l9.44.2A6,6,0,0,1,241.34,313Z"/><polygon class="cls-9" points="230.52 310.85 244.26 311.14 242.58 312.61 230.52 312.99 230.52 310.85"/><path class="cls-4" d="M241.17,315a2.82,2.82,0,0,1-.36.88L234,317.78c-1.06-.31-2.24-.65-2.68-.71s-.7-.76-.76-1.45Z"/><polygon class="cls-9" points="228.71 315.41 244.72 314.48 230.04 318.54 228.71 315.41"/><path class="cls-4" d="M243.89,351.73l-7.55,2c0-.42-.06-.84-.11-1.25,2.11-.29,5.62-.72,7.59-1A1.46,1.46,0,0,1,243.89,351.73Z"/><path class="cls-9" d="M234.49,352.4c.29-.12,10.81-1.39,10.81-1.39l-10.81,2.89Z"/><circle class="cls-2" cx="405.36" cy="51.83" r="11.78"/><circle class="cls-2" cx="457.67" cy="80.7" r="9.27"/><circle class="cls-2" cx="71.7" cy="80.7" r="29.74"/><circle class="cls-2" cx="454.93" cy="39.31" r="3.27"/><path class="cls-12" d="M173.61,415.25s3.39,4.43-1.56,11.12-9,12.34-7.38,16.51c0,0,7.47-12.42,13.55-12.6S180.29,422.73,173.61,415.25Z"/><path class="cls-4" d="M173.61,415.25a5.31,5.31,0,0,1,.69,1.39c5.94,7,9.1,13.48,3.4,13.62-5.31.15-11.69,9.65-13.21,12.05q.07.27.18.54s7.47-12.42,13.55-12.59S180.29,422.73,173.61,415.25Z"/><path class="cls-13" d="M179.89,420.91c0,1.55-.17,2.82-.39,2.82s-.38-1.27-.38-2.82.21-.83.43-.83S179.89,419.34,179.89,420.91Z"/><path class="cls-13" d="M182.06,422.76c-1.37.75-2.57,1.2-2.67,1s.92-.95,2.29-1.69.83-.2.93,0S183.42,422,182.06,422.76Z"/><path class="cls-12" d="M155.71,415.25s-3.39,4.43,1.56,11.12,9,12.34,7.38,16.51c0,0-7.47-12.42-13.55-12.6S149,422.73,155.71,415.25Z"/><path class="cls-4" d="M155.71,415.25a5.67,5.67,0,0,0-.7,1.39c-5.93,7-9.09,13.48-3.39,13.62,5.31.15,11.69,9.65,13.21,12.05q-.08.27-.18.54s-7.47-12.42-13.55-12.59S149,422.73,155.71,415.25Z"/><path class="cls-13" d="M149.41,420.91c0,1.55.17,2.82.39,2.82s.39-1.27.39-2.82-.22-.83-.43-.83S149.41,419.34,149.41,420.91Z"/><path class="cls-13" d="M147.24,422.76c1.37.75,2.57,1.2,2.67,1s-.92-.95-2.29-1.69-.83-.2-.93,0S145.88,422,147.24,422.76Z"/><path class="cls-14" d="M150.49,442.3S160,442,162.81,440s14.57-4.45,15.28-1.19,14.23,16.21,3.54,16.3-24.85-1.67-27.7-3.4S150.49,442.3,150.49,442.3Z"/><path class="cls-15" d="M181.82,453.93c-10.69.09-24.85-1.66-27.69-3.4-2.18-1.32-3-6.07-3.33-8.25h-.31s.6,7.63,3.44,9.37,17,3.49,27.7,3.4c3.09,0,4.15-1.12,4.09-2.75C185.29,453.31,184.12,453.93,181.82,453.93Z"/><path class="cls-16" d="M366.22,449.13s-6.05-20.55,1.13-35.68A32.47,32.47,0,0,0,370,393.08a54.83,54.83,0,0,0-2.88-9.56"/><path class="cls-12" d="M371.57,374c0,2.52-4.56,9.8-4.56,9.8s-4.56-7.3-4.56-9.8a4.56,4.56,0,0,1,9.12,0Z"/><path class="cls-12" d="M379.11,387.91c-1.37,2.12-9.17,5.77-9.17,5.77s.14-8.61,1.51-10.72a4.56,4.56,0,1,1,7.66,5Z"/><path class="cls-12" d="M378.78,411.76c-2.25,1.13-10.83.35-10.83.35s4.48-7.36,6.72-8.5a4.57,4.57,0,0,1,4.11,8.17h0Z"/><path class="cls-12" d="M374.47,429.74c-2,1.5-10.61,2.18-10.61,2.18s3.16-8,5.18-9.5a4.57,4.57,0,1,1,5.45,7.33Z"/><path class="cls-12" d="M360.36,394.17c1.81,1.75,10.23,3.57,10.23,3.57s-2.06-8.36-3.87-10.12a4.56,4.56,0,0,0-6.43,6.47l.07.07Z"/><path class="cls-12" d="M355.58,415.25c2.25,1.13,10.82.35,10.82.35s-4.47-7.36-6.72-8.5a4.56,4.56,0,0,0-4.1,8.15Z"/><path class="cls-12" d="M353.76,436.41c2,1.5,10.61,2.18,10.61,2.18s-3.16-8-5.19-9.51a4.57,4.57,0,0,0-5.45,7.34h0Z"/><path class="cls-12" d="M371.57,374c0,2.52-4.56,9.8-4.56,9.8s-4.56-7.3-4.56-9.8a4.56,4.56,0,0,1,9.12,0Z"/><path class="cls-12" d="M379.11,387.91c-1.37,2.12-9.17,5.77-9.17,5.77s.14-8.61,1.51-10.72a4.56,4.56,0,1,1,7.66,5Z"/><path class="cls-12" d="M378.78,411.76c-2.25,1.13-10.83.35-10.83.35s4.48-7.36,6.72-8.5a4.57,4.57,0,0,1,4.11,8.17h0Z"/><path class="cls-12" d="M374.47,429.74c-2,1.5-10.61,2.18-10.61,2.18s3.16-8,5.18-9.5a4.57,4.57,0,1,1,5.45,7.33Z"/><path class="cls-12" d="M360.36,394.17c1.81,1.75,10.23,3.57,10.23,3.57s-2.06-8.36-3.87-10.12a4.56,4.56,0,0,0-6.43,6.47l.07.07Z"/><path class="cls-12" d="M355.58,415.25c2.25,1.13,10.82.35,10.82.35s-4.47-7.36-6.72-8.5a4.56,4.56,0,0,0-4.1,8.15Z"/><path class="cls-12" d="M353.76,436.41c2,1.5,10.61,2.18,10.61,2.18s-3.16-8-5.19-9.51a4.57,4.57,0,0,0-5.45,7.34h0Z"/><path class="cls-14" d="M351.91,447.84s7.38-1.47,9.34-3.42,10.81-5.37,11.8-2.93,13.26,10.74,4.9,12.2-19.66,1.95-22.12,1S351.91,447.84,351.91,447.84Z"/><path class="cls-15" d="M378,452.78c-8.36,1.47-19.66,2-22.12,1-1.87-.74-3.17-4.31-3.69-6l-.24.05s1.48,5.86,3.93,6.83,13.76.49,22.12-1c2.41-.43,3.1-1.42,2.84-2.67C380.59,451.84,379.75,452.47,378,452.78Z"/><path class="cls-3" d="M92.21,46.63v.88a0,0,0,0,1,0,0v.36l0,.38a1,1,0,0,1,0,.25h0v.27a.22.22,0,0,1,0,.13s0,.09,0,.13,0,.06,0,.1,0,.11,0,.17h0l0,.11a.57.57,0,0,1,0,.14.47.47,0,0,1,0,.17v0a.61.61,0,0,1,0,.18c-.05.17-.11.35-.17.54s0,.11-.06.17l0,.09A11.93,11.93,0,0,1,90,53.68l-.13.16a12.57,12.57,0,0,1-1,1.17L71.69,72l-17-17a11.92,11.92,0,0,1-1.33-1.59,12.32,12.32,0,0,1-.69-1.08,12.09,12.09,0,0,1-1.46-6.84,5,5,0,0,1,.08-.65q.08-.54.21-1.14a.86.86,0,0,1,.06-.23l0-.12v-.06l0-.18h0c0-.13.09-.26.13-.39l.06-.18c.09-.26.18-.51.29-.76l.07-.14.1-.23.17-.36h0a.33.33,0,0,1,.09-.16,1.62,1.62,0,0,1,.1-.18,1.55,1.55,0,0,1,.12-.22l.06-.11a.21.21,0,0,0,0-.06h0l.08-.13.09-.14.22-.33.08-.11.1-.14.1-.14.13-.17.11-.14,0,0,.08-.1a1.07,1.07,0,0,1,.14-.16l.05-.07h0l.1-.11.12-.13c.1-.11.21-.23.33-.34l.13-.13.2-.19.13-.12.17-.15.1-.09.11-.09.21-.17.11-.09c.19-.14.37-.28.55-.4l.1-.08.12-.07.11-.07.16-.1.08-.05.11-.07.48-.26.09-.05.15-.08.12,0,.12-.06.12-.06.12-.06.13-.05.49-.2L59,35.3l.13,0,.12,0,.1,0,.22-.07.19-.13.09,0h.1l.16,0,.22-.06L61,34.7h.62c.22,0,.44-.05.66-.06h1.83a5.16,5.16,0,0,1,.54,0l.24,0h.51c.23,0,.45.09.68.15l.27.07h.08l.12,0,.23.07.1,0,.49.17.11,0,.15.06.23.09.25.11.1,0,.14.07.12.06.12,0,.15.08.12.06.28.15.11.07.4.25.11.07.12.07.11.08h0l.07,0,.48.35.11.08.21.18.11.09.1.09.16.14.14.12.2.2.13.13.14-.13a1.89,1.89,0,0,1,.2-.2l.14-.12.15-.14.11-.09.11-.09.22-.18.1-.08.55-.41.11-.07.12-.08.11-.07.15-.1.09,0,.11-.07.47-.26.1-.05.14-.07.12-.06.12-.06.13-.06.12,0,.12-.06.5-.19.12-.05.14,0,.12,0,.09,0,.23-.08.12,0,.1,0h.09l.16,0,.22-.05.69-.15h.61c.22,0,.44,0,.66-.07h1.83l.54.05.24,0h.51l.67.14.28.07h.08l.12,0,.23.06.09,0,.5.16.11,0,.15.05.22.09.25.11.1.05.14.06.12.06.12.06.15.08.12.06.28.15.12.07.4.24.11.07.11.08.12.09h0l.07,0,.47.35.11.09.22.18.11.08.1.09.15.12.13.13.08.08h0l.13.12.06.06.07.07.13.13.2.22a.63.63,0,0,1,.11.12l.19.21.2.23a10.25,10.25,0,0,1,.62.85l.12.09.09.13.07.11.12.2.1.17.06.11,0,.09,0,.09.07.13.06.13a10,10,0,0,1,.43.94l.06.13c0,.13.1.26.14.4a.34.34,0,0,1,0,.12.44.44,0,0,0,.06.16l0,.16,0,.09a.57.57,0,0,0,0,.14l0,.18c0,.09,0,.19.07.28s0,.1,0,.15,0,.13,0,.2v1.67h0v.4h0v.18Z"/><path class="cls-4" d="M92.21,46.63v.88a0,0,0,0,1,0,0v.36l0,.38a1,1,0,0,1,0,.25h0v.27a.22.22,0,0,1,0,.13s0,.09,0,.13,0,.06,0,.1,0,.11,0,.17h0l0,.11a.57.57,0,0,1,0,.14.47.47,0,0,1,0,.17v0a.61.61,0,0,1,0,.18c-.05.17-.11.35-.17.54s0,.11-.06.17l0,.09a12,12,0,0,0-3.19-11.32,12.44,12.44,0,0,0-2-1.63q-.33-.21-.66-.39a12,12,0,0,0-12.87.72,10.46,10.46,0,0,0-1.57,1.32,13.48,13.48,0,0,0-1.47-1.25h0a12.51,12.51,0,0,0-1.25-.79,12.06,12.06,0,0,0-11.57,0,12.15,12.15,0,0,0-4,3.6c-.24.34-.46.69-.66,1h0a10.94,10.94,0,0,0-.51,1c-.09.2-.17.39-.25.59a.86.86,0,0,1,.06-.23l0-.12v-.06l0-.18h0c0-.13.09-.26.13-.39s0-.12.06-.18c.09-.25.18-.5.29-.75l.07-.15.1-.23.17-.35h0c0-.06.06-.11.09-.17a1.62,1.62,0,0,1,.1-.18,2.39,2.39,0,0,1,.12-.22l.06-.11,0-.06h0l.08-.13.09-.14.22-.33.08-.11.1-.13.1-.15.13-.17L53.8,39l0,0,.08-.1.14-.16,0-.07h0l.1-.11.12-.13c.1-.11.21-.23.33-.34l.13-.13.2-.19.13-.12.17-.14.1-.1.11-.08.21-.18.11-.09.55-.4.11-.07.11-.08.11-.07.16-.1.08,0,.11-.07.48-.26.09-.05.15-.08.12,0,.12-.06.12-.06.12-.06.13-.05.49-.2.13-.05.13,0,.12,0,.1,0,.23-.07.17-.09.09,0h.1l.16,0,.22-.06L61,34.7h.62c.22,0,.44-.05.66-.06h1.83a5.16,5.16,0,0,1,.54,0l.24,0h.51c.23,0,.45.09.68.15l.27.07h.08l.12,0,.23.07.1,0,.49.17.11,0,.15.06.23.09.25.11.1,0,.14.07.12.06.12,0,.15.08.12.06.28.15.11.07.4.25.11.07.12.07.11.08h0l.07,0,.48.35.11.08.21.18.11.09.1.09.16.14.14.12.2.2.13.13.14-.13a1.89,1.89,0,0,1,.2-.2l.14-.12.15-.14.11-.09.11-.09.22-.18.1-.08.55-.41.11-.07.12-.08.11-.07.15-.1.09,0,.11-.07.47-.26.1-.05.14-.07.12-.06.12-.06.13-.06.12,0,.12-.06.5-.19.12-.05.14,0,.12,0,.09,0,.23-.08.12,0,.1,0h.09l.16,0,.22-.05.69-.15h.61c.22,0,.44,0,.66-.07h1.83l.54.05.24,0h.51l.67.14.28.07h.08l.12,0,.23.06.09,0,.5.16.11,0,.15.05.22.09.25.11.1.05.14.06.12.06.12.06.15.08.12.06.28.15.12.07.4.24.11.07.11.08.12.09h0l.07,0,.47.35.11.09.22.18.11.08.1.09.15.12.13.13.08.08h0l.13.12.06.06.07.07.13.13.2.22a.63.63,0,0,1,.11.12l.19.21.2.23a10.25,10.25,0,0,1,.62.85l.12.09.09.13.07.11.12.2.1.17.06.11,0,.09,0,.09.07.13.06.13a10,10,0,0,1,.43.94l.06.13c0,.13.1.26.14.4a.34.34,0,0,1,0,.12.44.44,0,0,0,.06.16l0,.16,0,.09a.57.57,0,0,0,0,.14l0,.18c0,.09,0,.19.07.28s0,.1,0,.15,0,.13,0,.2v1.67h0v.4h0v.18Z"/></g></g></svg>